<?xml version="1.0" encoding="utf-8"?>
<!-- Generator: Adobe Illustrator 16.0.0, SVG Export Plug-In . SVG Version: 6.00 Build 0)  -->
<!DOCTYPE svg PUBLIC "-//W3C//DTD SVG 1.1//EN" "http://www.w3.org/Graphics/SVG/1.1/DTD/svg11.dtd">
<svg version="1.1" id="Capa_1" xmlns="http://www.w3.org/2000/svg" xmlns:xlink="http://www.w3.org/1999/xlink" x="0px" y="0px"
	 width="63px" height="56px" viewBox="-39 0 63 56" enable-background="new -39 0 63 56" xml:space="preserve">
<g>
	<path fill="#FFFFFF" d="M6.9,20.494c-0.213-0.633-0.815-1.083-1.522-1.083H-6.433c-0.709,0-1.299,0.45-1.524,1.083l-2.233,6.431
		v8.592c0,0.589,0.483,1.072,1.073,1.072h1.074c0.59,0,1.073-0.483,1.073-1.072v-1.075H5.913v1.075c0,0.589,0.484,1.072,1.074,1.072
		h1.073c0.593,0,1.073-0.483,1.073-1.072v-8.592L6.9,20.494z M-6.433,31.22c-0.892,0-1.61-0.719-1.61-1.609
		c0-0.893,0.719-1.61,1.61-1.61s1.61,0.718,1.61,1.61C-4.822,30.501-5.541,31.22-6.433,31.22z M5.378,31.22
		c-0.893,0-1.612-0.719-1.612-1.609c0-0.893,0.72-1.61,1.612-1.61c0.891,0,1.609,0.718,1.609,1.61
		C6.987,30.501,6.269,31.22,5.378,31.22z M-8.043,25.853l1.61-4.831H5.378l1.609,4.831H-8.043z"/>
	<g>
		<path fill="#FFFFFF" d="M-17.346,21.752v4.983h4.688v1.97h-4.688v5.047h-2.104v-5.047h-4.685v-1.97h4.685v-4.983H-17.346z"/>
	</g>
</g>
</svg>
