<?xml version="1.0" encoding="utf-8"?>
<!-- Generator: Adobe Illustrator 16.0.0, SVG Export Plug-In . SVG Version: 6.00 Build 0)  -->
<!DOCTYPE svg PUBLIC "-//W3C//DTD SVG 1.1//EN" "http://www.w3.org/Graphics/SVG/1.1/DTD/svg11.dtd">
<svg version="1.1" xmlns="http://www.w3.org/2000/svg" xmlns:xlink="http://www.w3.org/1999/xlink" x="0px" y="0px" width="60px"
	 height="60px" viewBox="0 0 60 60" enable-background="new 0 0 60 60" xml:space="preserve">
<g id="Layer_1">
	<g id="calendar_2_">
		<g>
			<path fill="#506478" d="M52.918,7.656h-7.449V4.219C45.469,3.27,44.7,2.5,43.75,2.5s-1.719,0.77-1.719,1.719v3.438H31.719V4.219
				C31.719,3.27,30.948,2.5,30,2.5s-1.719,0.77-1.719,1.719v3.438H17.969V4.219c0-0.949-0.771-1.719-1.719-1.719
				s-1.719,0.77-1.719,1.719v3.438H7.084c-2.532,0-4.584,2.051-4.584,4.582v40.68c0,2.531,2.052,4.582,4.584,4.582h45.834
				c2.531,0,4.582-2.051,4.582-4.582v-40.68C57.5,9.707,55.449,7.656,52.918,7.656z M54.063,52.918c0,0.631-0.514,1.145-1.145,1.145
				H7.084c-0.633,0-1.146-0.514-1.146-1.145v-40.68c0-0.631,0.514-1.145,1.146-1.145h7.447v3.438c0,0.95,0.771,1.719,1.719,1.719
				s1.719-0.769,1.719-1.719v-3.438h10.313v3.438c0,0.95,0.771,1.719,1.719,1.719s1.719-0.769,1.719-1.719v-3.438h10.313v3.438
				c0,0.95,0.769,1.719,1.719,1.719s1.719-0.769,1.719-1.719v-3.438h7.449c0.631,0,1.145,0.514,1.145,1.145V52.918z"/>
			<rect x="14.531" y="23.125" fill="#506478" width="6.875" height="5.156"/>
			<rect x="14.531" y="31.719" fill="#506478" width="6.875" height="5.156"/>
			<rect x="14.531" y="40.313" fill="#506478" width="6.875" height="5.156"/>
			<rect x="26.563" y="40.313" fill="#506478" width="6.875" height="5.156"/>
			<rect x="26.563" y="31.719" fill="#506478" width="6.875" height="5.156"/>
			<rect x="26.563" y="23.125" fill="#506478" width="6.875" height="5.156"/>
			<rect x="38.594" y="40.313" fill="#506478" width="6.875" height="5.156"/>
			<rect x="38.594" y="31.719" fill="#506478" width="6.875" height="5.156"/>
			<rect x="38.594" y="23.125" fill="#506478" width="6.875" height="5.156"/>
		</g>
	</g>
</g>
<g id="Layer_2" display="none">
</g>
</svg>
