<?xml version="1.0" encoding="utf-8"?>
<!-- Generator: Adobe Illustrator 16.0.0, SVG Export Plug-In . SVG Version: 6.00 Build 0)  -->
<!DOCTYPE svg PUBLIC "-//W3C//DTD SVG 1.1//EN" "http://www.w3.org/Graphics/SVG/1.1/DTD/svg11.dtd">
<svg version="1.1" id="Layer_1" xmlns="http://www.w3.org/2000/svg" xmlns:xlink="http://www.w3.org/1999/xlink" x="0px" y="0px"
	 width="40px" height="40px" viewBox="0 0 40 40" enable-background="new 0 0 40 40" xml:space="preserve">
<g>
	<path fill="#1D93D0" d="M36.77,9.52h-6.49l-3.885-3.923c0,0-0.02-0.02-0.028-0.02l-0.021-0.02l0,0
		c-0.576-0.577-1.354-0.942-2.24-0.942h-8.077c-0.942,0-1.779,0.404-2.365,1.048v0.01L9.865,9.52H3.231
		C1.442,9.52,0,10.923,0,12.712v19.433c0,1.789,1.442,3.24,3.231,3.24H36.77c1.778,0,3.23-1.451,3.23-3.24V12.712
		C40,10.923,38.548,9.52,36.77,9.52z M20,30.529c-4.894,0-8.885-4-8.885-8.904c0-4.913,3.991-8.903,8.885-8.903
		c4.904,0,8.885,3.99,8.885,8.903C28.885,26.529,24.904,30.529,20,30.529z M36.163,14.663c-0.74,0-1.347-0.605-1.347-1.355
		s0.605-1.355,1.347-1.355s1.347,0.605,1.347,1.355S36.904,14.663,36.163,14.663z"/>
	<path fill="#1D93D0" d="M20,14.895c-3.711,0-6.711,3.01-6.711,6.73c0,3.712,3,6.73,6.711,6.73c3.702,0,6.712-3.01,6.712-6.73
		C26.712,17.904,23.702,14.895,20,14.895z"/>
</g>
</svg>
