<?xml version="1.0" encoding="utf-8"?>
<!-- Generator: Adobe Illustrator 16.0.0, SVG Export Plug-In . SVG Version: 6.00 Build 0)  -->
<!DOCTYPE svg PUBLIC "-//W3C//DTD SVG 1.1//EN" "http://www.w3.org/Graphics/SVG/1.1/DTD/svg11.dtd">
<svg version="1.1" xmlns="http://www.w3.org/2000/svg" xmlns:xlink="http://www.w3.org/1999/xlink" x="0px" y="0px" width="60px"
	 height="60px" viewBox="0 0 60 60" enable-background="new 0 0 60 60" xml:space="preserve">
<g id="Layer_1">
	<path fill="#506478" d="M24.266,22.399l2.331,0.909c0.428,0.167,0.796,0.444,1.071,0.792l-4.731,2.014l-1.979,1.978l1.303,1.302
		l1.725-1.725l4.206-1.789c-0.036,1.209-0.202,4.394-0.89,5.18l-1.349,1.476c-0.374,0.488-1.055,0.616-1.578,0.295
		c-2.089-1.278-6.438-4.112-6.438-4.112l-0.914,0.902L24.266,22.399L24.266,22.399z M15.794,49.696l2.976-2.975
		c0.606-0.607,1.594-0.607,2.199,0c0.609,0.607,0.609,1.595,0,2.2l1.853,1.853c1.627-1.628,1.627-4.275,0-5.903
		c-1.63-1.628-4.276-1.628-5.903,0l-2.976,2.975c-2.358,2.358-6.197,2.358-8.555,0c-2.361-2.358-2.361-6.197,0-8.556l8.564-8.563
		l0.024,0.035c0.45,0.601,1.021,0.901,1.541,0.36l0.227-0.225l8.864,5.787c0.994,0.564,1.686,0.126,2.055-0.326l3.212-4.375
		c0.471-0.574,3.965-5.395,4.481-6.107l1.729-1.018c0.594-0.329,1.052-0.851,1.306-1.479l2.508-6.228l1.388-0.427
		c0.386-0.119,0.639-0.466,0.657-0.851c0.637-0.387,1.383-1.007,1.193-1.697c3.53-1.037,9.238-1.783,14.027,1.908L59,13.703
		c-3.759-2.897-8.531-3.964-13.798-3.087c-1.181,0.198-2.26,0.471-3.194,0.759c-0.403-0.319-1.094-0.324-1.67-0.253
		c-0.226-0.167-0.526-0.232-0.816-0.147l-2.004,0.585c0,0-1.985,0.55-2.912-0.887l-1.089-1.897c-0.496-0.86-1.545-1.229-2.469-0.869
		l-5.82,2.258l-0.218,0.085l-0.446,0.172c-0.453,0.175-0.799,0.552-0.933,1.018l-0.031,2.568c-0.141,0.485-0.41,0.923-0.777,1.271
		l-3.765,2.489c-0.685,0.646-0.465,1.784,0.41,2.129l1.101,0.5l-8.408,6.683c-0.495,0.414-0.27,0.898,0.116,1.415l0.085,0.114
		l-8.83,8.829c-3.38,3.379-3.38,8.878,0,12.257C6.915,53.075,12.414,53.075,15.794,49.696L15.794,49.696z"/>
</g>
<g id="Layer_2" display="none">
</g>
</svg>
