<?xml version="1.0" encoding="utf-8"?>
<!-- Generator: Adobe Illustrator 16.0.0, SVG Export Plug-In . SVG Version: 6.00 Build 0)  -->
<!DOCTYPE svg PUBLIC "-//W3C//DTD SVG 1.1//EN" "http://www.w3.org/Graphics/SVG/1.1/DTD/svg11.dtd">
<svg version="1.1" xmlns="http://www.w3.org/2000/svg" xmlns:xlink="http://www.w3.org/1999/xlink" x="0px" y="0px" width="60px"
	 height="60px" viewBox="0 0 60 60" enable-background="new 0 0 60 60" xml:space="preserve">
<g id="Layer_1">
	<g id="New_Symbol_124">
	</g>
	<g id="Layer_x0020_1">
		<path fill="#506478" d="M2,48.236h2.624v-1.749c0-0.964,0.395-1.841,1.028-2.471h0.005c0.634-0.633,1.509-1.028,2.469-1.028
			h18.373c0.964,0,1.841,0.395,2.472,1.028c0.632,0.632,1.028,1.507,1.028,2.471v1.749h2.625v1.751H2.002v-1.751H2z M22.816,14.75
			l8.056,5.264l1.438-2.199l0.041-0.064c0.228-0.387,0.292-0.837,0.205-1.252c-0.09-0.435-0.352-0.841-0.753-1.104l-0.08-0.052
			l-0.004-0.003l-5.044-3.295c-0.401-0.263-0.88-0.338-1.316-0.246c-0.436,0.09-0.842,0.352-1.105,0.755l-1.435,2.197L22.816,14.75z
			 M29.916,21.477l-8.058-5.264l-5.745,8.793l8.058,5.263L29.916,21.477z M23.219,31.729l-8.058-5.264l-1.436,2.2l-0.002-0.002
			c-0.261,0.403-0.336,0.88-0.245,1.318c0.093,0.438,0.351,0.843,0.752,1.104h0.003l5.128,3.351l-0.001,0.002
			c0.403,0.261,0.878,0.337,1.317,0.244c0.437-0.09,0.842-0.352,1.105-0.755L23.219,31.729L23.219,31.729z M12.261,27.708
			l10.527-16.114c0.525-0.802,1.335-1.322,2.212-1.506c0.875-0.184,1.825-0.035,2.629,0.492l5.128,3.35l0.079,0.052l0.005,0.005
			c0.755,0.526,1.244,1.31,1.422,2.154c0.182,0.874,0.032,1.821-0.492,2.625l-0.001,0.003l0.001,0.001l-3.786,5.795l25.571,13.669
			l0.061,0.035l0.008,0.003c2.07,1.352,2.647,3.374,2.268,5.229c-0.143,0.704-0.428,1.384-0.82,1.986
			c-0.392,0.601-0.9,1.135-1.488,1.548c-1.546,1.091-3.628,1.374-5.697,0.022l-0.046-0.028l-0.019-0.017L27.029,29.091l-3.784,5.793
			c-0.527,0.804-1.337,1.324-2.214,1.506c-0.874,0.185-1.821,0.035-2.626-0.491h-0.003l-5.128-3.351l0.001-0.001
			c-0.805-0.526-1.324-1.336-1.508-2.212c-0.183-0.874-0.033-1.822,0.491-2.626v-0.003L12.261,27.708z M29.028,26.03l-1.04,1.592
			l22.889,18.001c1.358,0.864,2.707,0.686,3.702-0.015c0.401-0.283,0.755-0.656,1.031-1.078c0.275-0.423,0.475-0.896,0.574-1.377
			c0.243-1.2-0.144-2.516-1.51-3.412L29.028,26.032V26.03z M6.373,48.236h21.871v-1.75c0-0.479-0.198-0.917-0.515-1.235
			c-0.316-0.315-0.755-0.515-1.235-0.515H8.121c-0.48,0-0.919,0.196-1.237,0.513l0.001,0.001C6.57,45.565,6.37,46.004,6.37,46.485
			v1.749L6.373,48.236z"/>
	</g>
</g>
<g id="Layer_2" display="none">
</g>
</svg>
