<?xml version="1.0" encoding="utf-8"?>
<!-- Generator: Adobe Illustrator 16.0.0, SVG Export Plug-In . SVG Version: 6.00 Build 0)  -->
<!DOCTYPE svg PUBLIC "-//W3C//DTD SVG 1.1//EN" "http://www.w3.org/Graphics/SVG/1.1/DTD/svg11.dtd">
<svg version="1.1" id="Capa_1" xmlns="http://www.w3.org/2000/svg" xmlns:xlink="http://www.w3.org/1999/xlink" x="0px" y="0px"
	 width="37.178px" height="37.178px" viewBox="0 0 37.178 37.178" enable-background="new 0 0 37.178 37.178" xml:space="preserve">
<g>
	<path fill="#506478" d="M36.049,36.3c-0.586,0.585-1.354,0.878-2.121,0.878c-0.768,0-1.535-0.293-2.121-0.879L19.766,24.257
		c-0.885-0.884-1.1-2.182-0.648-3.269l-2.468-2.467l-3.407,3.407c0.682,1.089,0.536,2.562-0.436,3.53
		c-1.122,1.123-2.92,1.146-4.012,0.055l-7.742-7.739c-1.092-1.093-1.067-2.889,0.056-4.011c0.972-0.971,2.442-1.117,3.53-0.434
		l8.941-8.942c-0.686-1.087-0.538-2.559,0.433-3.529c1.123-1.123,2.919-1.147,4.012-0.055l7.741,7.741
		c1.093,1.092,1.068,2.888-0.055,4.011c-0.974,0.971-2.442,1.116-3.529,0.434L18.771,16.4l2.771,2.77
		c0.879-0.102,1.793,0.171,2.468,0.847L36.05,32.06C37.221,33.229,37.221,35.128,36.049,36.3z"/>
</g>
</svg>
