<?xml version="1.0" encoding="utf-8"?>
<!-- Generator: Adobe Illustrator 16.0.0, SVG Export Plug-In . SVG Version: 6.00 Build 0)  -->
<!DOCTYPE svg PUBLIC "-//W3C//DTD SVG 1.1//EN" "http://www.w3.org/Graphics/SVG/1.1/DTD/svg11.dtd">
<svg version="1.1" xmlns="http://www.w3.org/2000/svg" xmlns:xlink="http://www.w3.org/1999/xlink" x="0px" y="0px" width="40px"
	 height="40px" viewBox="0 0 40 40" enable-background="new 0 0 40 40" xml:space="preserve">
<g id="Layer_1">
	<g>
		<path fill="#525659" d="M20,36.047c-1.516,0-2.77-1.094-3.027-2.539h-4v4.594h2.234C16.461,39.281,18.145,40,20,40
			s3.539-0.719,4.793-1.898h2.234v-4.594h-4C22.77,34.953,21.516,36.047,20,36.047L20,36.047z"/>
		<path fill="#525659" d="M20,12.43c-0.914,0-1.656-0.742-1.656-1.656S19.086,9.117,20,9.117s1.656,0.742,1.656,1.656
			S20.914,12.43,20,12.43L20,12.43z M24.793,27.836c-0.738-0.695-1.629-1.227-2.617-1.547V14.391h1.438V7.156h-7.227v7.234h1.438
			v11.898c-0.988,0.32-1.879,0.852-2.617,1.547h-2.234v4.594h4c0.258-1.445,1.512-2.539,3.027-2.539s2.77,1.094,3.027,2.539h4
			v-4.594H24.793L24.793,27.836z"/>
		<path fill="#525659" d="M15.34,13.547v-0.305h0.137V5.602h9.047v7.641h0.137v0.305c0,1.617,1.32,2.938,2.941,2.938h0.168V3.914
			C27.77,1.75,26.02,0,23.855,0h-3.383h-0.945h-3.383C13.98,0,12.23,1.75,12.23,3.914v12.57h0.168
			C14.02,16.484,15.34,15.164,15.34,13.547L15.34,13.547z"/>
	</g>
</g>
<g id="Layer_2" display="none">
</g>
</svg>
