<?xml version="1.0" encoding="utf-8"?>
<!-- Generator: Adobe Illustrator 16.0.0, SVG Export Plug-In . SVG Version: 6.00 Build 0)  -->
<!DOCTYPE svg PUBLIC "-//W3C//DTD SVG 1.1//EN" "http://www.w3.org/Graphics/SVG/1.1/DTD/svg11.dtd">
<svg version="1.1" xmlns="http://www.w3.org/2000/svg" xmlns:xlink="http://www.w3.org/1999/xlink" x="0px" y="0px" width="330px"
	 height="80px" viewBox="0 0 330 80" enable-background="new 0 0 330 80" xml:space="preserve">
<g id="Layer_1">
	<g>
		<g>
			<g>
				<g>
					<path fill="#B43C1E" d="M7.342,19.874H26.4c0.458,0,0.925,0.012,1.401,0.03c0.477,0.022,0.912,0.105,1.269,0.248
						c0.379,0.146,0.689,0.384,0.936,0.719c0.263,0.33,0.379,0.789,0.379,1.371c0,0.622-0.117,1.09-0.379,1.404
						c-0.247,0.309-0.557,0.548-0.936,0.713c-0.356,0.167-0.792,0.262-1.269,0.282c-0.475,0.021-0.941,0.032-1.401,0.032H7.342
						v15.882h21.615c0.457,0,0.931,0.016,1.401,0.032c0.475,0.025,0.931,0.105,1.34,0.245c0.406,0.15,0.757,0.379,1.001,0.691
						c0.244,0.309,0.376,0.779,0.376,1.402c0,0.622-0.132,1.098-0.376,1.431c-0.244,0.332-0.565,0.57-0.975,0.716
						c-0.397,0.15-0.828,0.229-1.339,0.248c-0.492,0.024-0.97,0.03-1.427,0.03H6.339c-0.654,0-1.215,0-1.67,0
						c-0.428,0-0.764-0.03-1.046-0.089c-0.261-0.065-0.498-0.155-0.712-0.281c-0.198-0.128-0.429-0.292-0.676-0.498
						c-0.454-0.418-0.726-0.894-0.774-1.435c-0.067-0.541-0.109-1.434-0.109-2.674V5.732c0-1.077,0.033-1.908,0.069-2.492
						c0.046-0.581,0.294-1.097,0.757-1.557c0.405-0.457,0.875-0.721,1.398-0.81c0.505-0.083,1.436-0.125,2.763-0.125h21.747
						c0.461,0,0.93,0.012,1.404,0.031c0.476,0.025,0.924,0.106,1.339,0.251c0.408,0.146,0.732,0.373,1.001,0.685
						c0.246,0.311,0.354,0.776,0.354,1.4c0,0.626-0.108,1.104-0.354,1.436c-0.269,0.33-0.588,0.568-0.978,0.715
						c-0.396,0.147-0.847,0.229-1.336,0.245c-0.494,0.024-0.97,0.036-1.43,0.036H7.342V19.874z"/>
					<path fill="#B43C1E" d="M67.828,37.752c-0.707,1.661-1.736,3.113-3.115,4.357c-1.367,1.248-3.073,2.233-5.144,2.96
						c-2.049,0.729-4.437,1.093-7.126,1.093c-1.083,0-2.179-0.063-3.293-0.19c-1.137-0.121-2.25-0.352-3.383-0.68
						c-1.114-0.335-2.196-0.78-3.23-1.344c-1.03-0.557-1.967-1.271-2.804-2.15c-1.246-1.286-2.234-2.745-2.917-4.387
						c-0.725-1.639-1.067-3.123-1.067-4.45c0-0.667,0.246-1.262,0.755-1.781c0.492-0.515,1.115-0.778,1.853-0.778
						c0.838,0,1.434,0.293,1.777,0.872c0.364,0.582,0.794,1.597,1.335,3.055c0.185,0.492,0.442,1.157,0.823,1.994
						c0.379,0.827,0.952,1.639,1.738,2.427c0.787,0.787,1.82,1.466,3.121,2.024c1.274,0.559,2.933,0.838,4.917,0.838
						c1.379,0,2.722-0.172,4.049-0.527c1.328-0.351,2.511-0.887,3.539-1.59c1.053-0.707,1.879-1.575,2.539-2.619
						c0.64-1.029,0.958-2.238,0.958-3.606c0-1.461-0.319-2.65-0.958-3.585c-0.659-0.934-1.446-1.697-2.381-2.278
						c-0.933-0.575-1.901-1.015-2.915-1.305c-1.02-0.292-1.931-0.517-2.718-0.686c-2.066-0.454-3.779-0.85-5.14-1.185
						c-1.348-0.33-2.505-0.654-3.454-0.966c-0.953-0.311-1.78-0.64-2.471-0.994c-0.669-0.352-1.35-0.8-2.005-1.341
						c-0.375-0.288-0.824-0.685-1.311-1.185c-0.511-0.498-0.952-1.107-1.378-1.837c-0.409-0.726-0.771-1.557-1.049-2.492
						c-0.299-0.934-0.446-2.002-0.446-3.207c0-2.034,0.41-3.82,1.25-5.354c0.835-1.54,1.939-2.812,3.336-3.835
						c1.393-1.015,2.998-1.774,4.852-2.273c1.855-0.499,3.764-0.748,5.768-0.748c1.162,0,2.368,0.094,3.65,0.281
						c1.261,0.186,2.508,0.509,3.716,0.966c1.231,0.458,2.392,1.101,3.474,1.931c1.086,0.834,1.984,1.89,2.738,3.178
						c0.411,0.705,0.763,1.476,1.023,2.304c0.264,0.831,0.402,1.597,0.402,2.303c0,0.667-0.236,1.32-0.71,1.963
						c-0.479,0.646-1.146,0.966-1.96,0.966c-0.95,0-1.624-0.32-2.005-0.966c-0.356-0.642-0.669-1.313-0.935-2.024
						c-0.328-0.912-0.667-1.722-1.046-2.427c-0.381-0.707-1.056-1.415-2.005-2.12c-0.783-0.581-1.747-1.024-2.89-1.335
						c-1.134-0.314-2.355-0.47-3.631-0.47c-1.462,0-2.767,0.197-3.898,0.592c-1.152,0.393-2.135,0.913-2.935,1.557
						c-0.803,0.645-1.42,1.389-1.828,2.242c-0.43,0.85-0.624,1.733-0.624,2.646c0,1.33,0.29,2.419,0.936,3.272
						c0.602,0.853,1.405,1.557,2.361,2.118c0.947,0.559,2.024,1.007,3.203,1.335c1.182,0.335,2.321,0.625,3.384,0.877
						c1.84,0.455,3.396,0.86,4.678,1.214c1.296,0.351,2.403,0.706,3.337,1.057c0.933,0.354,1.731,0.716,2.404,1.09
						c0.652,0.374,1.274,0.773,1.869,1.184c0.656,0.498,1.255,1.113,1.764,1.837c0.525,0.728,0.954,1.488,1.286,2.278
						c0.328,0.788,0.573,1.585,0.737,2.396c0.179,0.811,0.264,1.549,0.264,2.211C68.895,34.329,68.531,36.093,67.828,37.752z"/>
					<path fill="#B43C1E" d="M109.904,35.354c-0.64,1.64-1.656,3.255-3.048,4.862c-1.396,1.594-3.21,2.979-5.456,4.139
						c-2.245,1.164-4.955,1.745-8.153,1.745c-1.242,0-2.531-0.085-3.831-0.248c-1.311-0.167-2.613-0.446-3.89-0.846
						c-1.297-0.391-2.545-0.931-3.74-1.615c-1.218-0.688-2.314-1.551-3.306-2.583c-2.046-2.167-3.578-4.82-4.644-7.977
						c-1.067-3.156-1.583-6.414-1.583-9.776c0-3.493,0.5-6.657,1.517-9.504c1.015-2.845,2.438-5.262,4.274-7.257
						c1.821-1.992,4.001-3.535,6.544-4.638C87.114,0.552,89.903,0,92.937,0c2.149,0,4.095,0.271,5.815,0.812
						c1.721,0.542,3.246,1.215,4.556,2.024c1.301,0.807,2.409,1.722,3.323,2.74c0.921,1.02,1.651,1.994,2.222,2.928
						c0.561,0.934,0.971,1.789,1.249,2.55c0.261,0.773,0.401,1.345,0.401,1.716c0,0.581-0.206,1.163-0.6,1.742
						c-0.395,0.583-1.01,0.874-1.832,0.874c-0.455,0-0.859-0.112-1.217-0.338c-0.359-0.229-0.692-0.525-1.003-0.877
						c-0.309-0.351-0.581-0.746-0.826-1.181c-0.267-0.436-0.493-0.863-0.691-1.279c-0.589-1.08-1.296-2.065-2.113-2.96
						c-0.835-0.89-1.733-1.624-2.692-2.208c-0.654-0.414-1.502-0.813-2.518-1.186c-1.019-0.372-2.299-0.56-3.829-0.56
						c-1.579,0-3.248,0.279-4.988,0.84c-1.737,0.56-3.354,1.539-4.828,2.932c-1.477,1.39-2.702,3.281-3.673,5.667
						c-0.981,2.387-1.467,5.407-1.467,9.062c0,3.654,0.475,6.644,1.445,8.973c0.949,2.328,2.137,4.165,3.567,5.511
						c1.441,1.353,3.009,2.271,4.713,2.771c1.707,0.499,3.279,0.749,4.731,0.749c3.239,0,5.934-0.847,8.092-2.552
						c2.166-1.706,3.784-4.111,4.858-7.226c0.212-0.583,0.499-1.156,0.841-1.715c0.357-0.557,0.976-0.841,1.848-0.841
						c0.571,0,1.155,0.209,1.713,0.623c0.557,0.417,0.842,1.04,0.842,1.869C110.878,32.415,110.542,33.714,109.904,35.354z"/>
					<path fill="#B43C1E" d="M122.146,28.657c0,0.955,0.064,2.148,0.179,3.581c0.132,1.435,0.553,2.831,1.286,4.174
						c0.723,1.352,1.889,2.5,3.48,3.459c1.607,0.953,3.875,1.432,6.829,1.432c2.61,0,4.691-0.417,6.232-1.25
						c1.527-0.829,2.694-1.878,3.477-3.141c0.79-1.27,1.304-2.639,1.532-4.108c0.23-1.476,0.34-2.841,0.34-4.087V4.987
						c0-1.083,0.036-1.919,0.104-2.523c0.052-0.602,0.284-1.109,0.709-1.527c0.203-0.204,0.5-0.414,0.875-0.623
						c0.372-0.205,0.802-0.313,1.308-0.313c0.87,0,1.59,0.313,2.168,0.936c0.419,0.418,0.664,0.926,0.727,1.527
						c0.062,0.604,0.088,1.44,0.088,2.523v23.174c0,2.284-0.245,4.495-0.75,6.634c-0.494,2.137-1.375,4.045-2.647,5.727
						c-1.264,1.687-3.006,3.031-5.233,4.05c-2.216,1.014-5.045,1.525-8.505,1.525c-2.989,0-5.617-0.313-7.879-0.935
						c-2.266-0.622-4.15-1.641-5.656-3.053c-1.527-1.409-2.667-3.256-3.464-5.543c-0.795-2.279-1.187-5.063-1.187-8.347V4.987
						c0-1.083,0.041-1.919,0.105-2.523c0.048-0.602,0.286-1.109,0.715-1.527c0.197-0.204,0.492-0.414,0.868-0.623
						c0.375-0.205,0.806-0.313,1.312-0.313c0.868,0,1.591,0.313,2.176,0.936c0.417,0.418,0.653,0.926,0.721,1.527
						c0.058,0.604,0.088,1.44,0.088,2.523V28.657z"/>
					<path fill="#B43C1E" d="M207.115,19.874h19.058c0.458,0,0.928,0.012,1.41,0.03c0.474,0.022,0.893,0.105,1.265,0.248
						c0.379,0.146,0.691,0.384,0.938,0.719c0.248,0.33,0.376,0.789,0.376,1.371c0,0.622-0.128,1.09-0.376,1.404
						c-0.246,0.309-0.558,0.548-0.938,0.713c-0.372,0.167-0.792,0.262-1.265,0.282c-0.482,0.021-0.951,0.032-1.41,0.032h-19.058
						v15.882h21.616c0.449,0,0.927,0.016,1.4,0.032c0.479,0.025,0.917,0.105,1.343,0.245c0.411,0.15,0.74,0.379,0.997,0.691
						c0.248,0.309,0.365,0.779,0.365,1.402c0,0.622-0.118,1.098-0.365,1.431c-0.256,0.332-0.578,0.57-0.973,0.716
						c-0.392,0.15-0.842,0.229-1.336,0.248c-0.493,0.024-0.98,0.03-1.43,0.03h-22.616c-0.668,0-1.227,0-1.683,0
						c-0.412,0-0.752-0.03-1.027-0.089c-0.267-0.065-0.504-0.155-0.715-0.281c-0.213-0.128-0.438-0.292-0.689-0.498
						c-0.458-0.418-0.711-0.894-0.777-1.435c-0.067-0.54-0.093-1.433-0.093-2.674V5.732c0-1.077,0.021-1.908,0.066-2.492
						c0.036-0.581,0.289-1.097,0.74-1.557c0.422-0.457,0.888-0.721,1.403-0.81c0.522-0.083,1.445-0.125,2.776-0.125h21.736
						c0.457,0,0.926,0.012,1.4,0.031c0.486,0.025,0.928,0.106,1.346,0.251c0.413,0.146,0.742,0.373,0.993,0.685
						c0.253,0.311,0.379,0.776,0.379,1.4c0,0.626-0.126,1.104-0.379,1.436c-0.251,0.33-0.572,0.568-0.966,0.715
						c-0.392,0.147-0.841,0.229-1.337,0.245c-0.502,0.024-0.98,0.036-1.437,0.036h-20.737V19.874z"/>
					<path fill="#B43C1E" d="M243.494,41.118c0,0.911-0.021,1.567-0.063,1.96c-0.035,0.393-0.104,0.756-0.185,1.091
						c-0.213,0.665-0.591,1.149-1.15,1.461c-0.56,0.313-1.116,0.47-1.652,0.47c-0.587,0-1.137-0.175-1.652-0.525
						c-0.521-0.353-0.889-0.821-1.091-1.405c-0.089-0.294-0.136-0.738-0.154-1.336c-0.023-0.606-0.031-1.18-0.031-1.715V5.732
						c0-1.121,0.05-2.014,0.153-2.678c0.106-0.664,0.317-1.164,0.656-1.494c0.325-0.333,0.821-0.549,1.483-0.653
						c0.665-0.102,1.549-0.158,2.673-0.158h14.209c0.167,0,0.575,0.012,1.242,0.031c0.66,0.025,1.416,0.085,2.266,0.189
						c0.853,0.1,1.732,0.277,2.669,0.528c0.931,0.249,1.765,0.601,2.507,1.056c1.784,1.083,3.181,2.514,4.194,4.303
						c1.016,1.782,1.514,3.798,1.514,6.036c0,2.244-0.436,4.116-1.331,5.608c-0.884,1.496-1.791,2.577-2.692,3.239
						c-1.493,1.124-2.94,1.871-4.348,2.249c-1.402,0.368-2.561,0.64-3.47,0.804c0.576,0.335,1.3,0.803,2.168,1.403
						c0.875,0.604,1.713,1.444,2.543,2.522c0.461,0.588,0.959,1.256,1.52,2.029c0.562,0.771,0.92,1.278,1.083,1.525l4.031,6.79
						c0.462,0.786,0.825,1.425,1.092,1.903c0.264,0.477,0.476,0.868,0.62,1.18c0.149,0.309,0.238,0.559,0.285,0.746
						c0.038,0.189,0.05,0.411,0.05,0.657c0,0.829-0.268,1.473-0.827,1.926c-0.575,0.459-1.203,0.69-1.902,0.69
						c-0.447,0-0.848-0.063-1.178-0.19c-0.329-0.121-0.646-0.343-0.957-0.654c-0.312-0.312-0.629-0.724-0.955-1.244
						c-0.343-0.521-0.756-1.175-1.25-1.964l-4.215-6.724c-1.534-2.411-2.848-4.287-3.942-5.641
						c-1.095-1.347-2.108-2.345-3.037-2.987c-0.931-0.645-1.833-1.042-2.728-1.187c-0.887-0.142-1.872-0.215-2.942-0.215h-5.209
						v15.76H243.494z M243.494,5.359v15.202h10.398c0.706,0,1.691-0.042,2.936-0.124c1.245-0.081,2.471-0.367,3.699-0.844
						c1.226-0.478,2.288-1.237,3.205-2.272c0.919-1.041,1.38-2.534,1.38-4.484c0-2.41-0.953-4.34-2.871-5.796
						c-0.496-0.415-1.102-0.735-1.803-0.965c-0.704-0.229-1.431-0.392-2.183-0.5c-0.752-0.103-1.49-0.163-2.244-0.186
						c-0.746-0.02-1.396-0.032-1.933-0.032L243.494,5.359L243.494,5.359z"/>
					<path fill="#B43C1E" d="M283.986,41.176c0,1.084-0.04,1.927-0.1,2.527c-0.062,0.6-0.299,1.091-0.719,1.46
						c-0.197,0.211-0.488,0.417-0.873,0.622c-0.374,0.215-0.802,0.314-1.307,0.314c-0.366,0-0.752-0.074-1.154-0.216
						c-0.384-0.148-0.735-0.366-1.031-0.656c-0.411-0.417-0.647-0.924-0.713-1.524c-0.063-0.6-0.093-1.443-0.093-2.527V4.922
						c0-1.08,0.029-1.921,0.093-2.524c0.065-0.598,0.303-1.085,0.713-1.462c0.213-0.204,0.496-0.414,0.848-0.623
						C280.011,0.108,280.448,0,280.988,0c0.378,0,0.763,0.074,1.158,0.222c0.39,0.145,0.736,0.382,1.021,0.715
						c0.42,0.377,0.656,0.873,0.719,1.494c0.06,0.624,0.1,1.46,0.1,2.493V41.176z"/>
					<path fill="#B43C1E" d="M298.304,32.458l-3.857,9.964c-0.456,1.207-0.891,2.119-1.285,2.741
						c-0.394,0.622-1.107,0.936-2.139,0.936c-0.836,0-1.526-0.281-2.06-0.84c-0.544-0.561-0.813-1.155-0.813-1.778
						c0-0.453,0.075-0.911,0.225-1.372c0.143-0.457,0.365-1.032,0.647-1.737l14.137-35.075c0.34-0.874,0.655-1.641,0.934-2.303
						c0.294-0.664,0.614-1.212,0.978-1.652c0.343-0.435,0.767-0.766,1.244-0.997C306.793,0.115,307.381,0,308.08,0
						c0.591,0,1.148,0.115,1.689,0.345c0.541,0.23,0.981,0.528,1.313,0.902c0.328,0.338,0.661,0.904,1.021,1.715
						c0.346,0.809,0.679,1.565,0.961,2.271l14.646,34.885c0.327,0.788,0.565,1.41,0.711,1.869c0.15,0.459,0.225,0.913,0.225,1.37
						c0,0.581-0.277,1.184-0.806,1.806c-0.544,0.622-1.28,0.935-2.183,0.935c-1.05,0-1.759-0.321-2.154-0.961
						c-0.393-0.648-0.84-1.591-1.335-2.837l-3.986-9.841H298.304L298.304,32.458z M316.374,27.661l-8.343-20.87l-8.04,20.87H316.374
						z"/>
					<path fill="#B43C1E" d="M163.742,45.349c-1.199,0-2.139-0.056-2.826-0.186c-0.685-0.126-1.2-0.394-1.528-0.808
						c-0.327-0.417-0.523-0.998-0.583-1.743c-0.064-0.748-0.102-1.747-0.102-2.994V5.732c0-1.121,0.05-2.014,0.161-2.678
						c0.107-0.664,0.339-1.164,0.682-1.494c0.355-0.333,0.862-0.549,1.521-0.653c0.662-0.102,1.557-0.158,2.674-0.158h10.796
						c1.205,0,2.479,0.042,3.82,0.125c1.345,0.089,2.713,0.312,4.1,0.686c1.384,0.375,2.758,0.967,4.134,1.775
						c1.357,0.81,2.646,1.941,3.841,3.394c1.866,2.243,3.144,4.777,3.849,7.6c0.701,2.829,1.061,5.716,1.061,8.657
						c0,1.456-0.114,3.054-0.313,4.798c-0.21,1.746-0.596,3.478-1.152,5.202c-0.553,1.721-1.339,3.384-2.355,4.981
						c-1.012,1.599-2.35,2.981-4,4.142c-1.079,0.748-2.185,1.339-3.327,1.78c-1.139,0.436-2.274,0.765-3.414,0.994
						c-1.137,0.229-2.231,0.368-3.286,0.409c-1.053,0.041-2.02,0.057-2.888,0.057L163.742,45.349L163.742,45.349z M164.689,40.553
						h9.151c1.427,0,2.698-0.058,3.839-0.181c1.141-0.13,2.177-0.356,3.106-0.688c0.937-0.336,1.818-0.78,2.625-1.339
						c0.805-0.563,1.585-1.302,2.335-2.211c0.913-1.082,1.612-2.297,2.084-3.644c0.479-1.351,0.832-2.661,1.056-3.926
						c0.23-1.264,0.366-2.388,0.403-3.365c0.049-0.974,0.069-1.606,0.069-1.901c0-2.991-0.37-5.625-1.096-7.912
						c-0.723-2.282-1.563-4.044-2.517-5.293c-0.672-0.875-1.371-1.598-2.089-2.182c-0.724-0.581-1.564-1.048-2.521-1.4
						c-0.952-0.352-2.045-0.604-3.272-0.746c-1.226-0.148-2.668-0.219-4.333-0.219h-8.844L164.689,40.553L164.689,40.553z"/>
				</g>
			</g>
			<g>
				<path fill="#FFFFFF" d="M2.104,76.006c1.332,0.819,3.277,1.504,5.326,1.504c3.039,0,4.815-1.606,4.815-3.926
					c0-2.153-1.229-3.38-4.337-4.578c-3.756-1.331-6.078-3.279-6.078-6.521c0-3.585,2.971-6.249,7.444-6.249
					c2.356,0,4.063,0.546,5.087,1.127l-0.817,2.423c-0.752-0.409-2.289-1.091-4.372-1.091c-3.14,0-4.335,1.878-4.335,3.447
					c0,2.152,1.4,3.211,4.575,4.44c3.893,1.504,5.873,3.38,5.873,6.761c0,3.551-2.629,6.625-8.058,6.625
					c-2.22,0-4.645-0.648-5.874-1.468L2.104,76.006z"/>
				<path fill="#FFFFFF" d="M34.403,71.225c0,6.111-4.234,8.775-8.228,8.775c-4.473,0-7.922-3.278-7.922-8.5
					c0-5.533,3.619-8.777,8.194-8.777C31.193,62.723,34.403,66.173,34.403,71.225z M21.292,71.396c0,3.619,2.083,6.351,5.02,6.351
					c2.868,0,5.019-2.698,5.019-6.419c0-2.799-1.399-6.352-4.951-6.352C22.829,64.976,21.292,68.255,21.292,71.396z"/>
				<path fill="#FFFFFF" d="M38.194,55.381h3.004v24.245h-3.004V55.381z"/>
				<path fill="#FFFFFF" d="M60.078,75.119c0,1.707,0.035,3.209,0.137,4.507h-2.663l-0.17-2.698h-0.069
					C56.527,78.258,54.787,80,51.85,80c-2.596,0-5.703-1.434-5.703-7.237v-9.665h3.005v9.151c0,3.142,0.955,5.26,3.688,5.26
					c2.016,0,3.414-1.4,3.961-2.734c0.17-0.442,0.272-0.99,0.272-1.536V63.099h3.004V75.119z"/>
				<path fill="#FFFFFF" d="M76.844,79.01c-0.786,0.411-2.526,0.957-4.747,0.957c-4.986,0-8.228-3.38-8.228-8.435
					c0-5.087,3.482-8.775,8.877-8.775c1.776,0,3.346,0.442,4.167,0.853l-0.683,2.322c-0.717-0.409-1.844-0.785-3.483-0.785
					c-3.791,0-5.839,2.798-5.839,6.248c0,3.825,2.459,6.18,5.737,6.18c1.707,0,2.834-0.444,3.687-0.818L76.844,79.01z"/>
				<path fill="#FFFFFF" d="M83.706,58.456c0.034,1.023-0.716,1.843-1.912,1.843c-1.058,0-1.809-0.819-1.809-1.843
					c0-1.058,0.785-1.878,1.878-1.878C82.99,56.578,83.706,57.398,83.706,58.456z M80.359,79.626V63.099h3.004v16.527H80.359z"/>
				<path fill="#FFFFFF" d="M103.304,71.225c0,6.111-4.235,8.775-8.229,8.775c-4.473,0-7.922-3.278-7.922-8.5
					c0-5.533,3.62-8.777,8.194-8.777C100.094,62.723,103.304,66.173,103.304,71.225z M90.192,71.396
					c0,3.619,2.082,6.351,5.019,6.351c2.869,0,5.02-2.698,5.02-6.419c0-2.799-1.401-6.352-4.952-6.352
					C91.729,64.976,90.192,68.255,90.192,71.396z"/>
				<path fill="#FFFFFF" d="M107.094,67.571c0-1.707-0.035-3.107-0.136-4.473h2.662l0.17,2.731h0.07
					c0.818-1.569,2.731-3.107,5.462-3.107c2.288,0,5.838,1.366,5.838,7.034v9.87h-3.004v-9.529c0-2.661-0.99-4.881-3.824-4.881
					c-1.98,0-3.517,1.401-4.029,3.075c-0.136,0.374-0.204,0.887-0.204,1.398v9.938h-3.005L107.094,67.571L107.094,67.571z"/>
				<path fill="#FFFFFF" d="M127.716,71.909c0.067,4.064,2.662,5.736,5.667,5.736c2.151,0,3.449-0.376,4.576-0.854l0.512,2.152
					c-1.059,0.479-2.87,1.025-5.499,1.025c-5.087,0-8.125-3.346-8.125-8.332c0-4.985,2.935-8.912,7.75-8.912
					c5.395,0,6.828,4.746,6.828,7.786c0,0.616-0.068,1.093-0.101,1.4L127.716,71.909L127.716,71.909z M136.525,69.756
					c0.034-1.912-0.785-4.881-4.166-4.881c-3.039,0-4.37,2.799-4.609,4.881H136.525z"/>
				<path fill="#FFFFFF" d="M142.738,76.552c0.888,0.58,2.458,1.195,3.961,1.195c2.185,0,3.209-1.092,3.209-2.458
					c0-1.434-0.853-2.22-3.073-3.04c-2.971-1.057-4.371-2.696-4.371-4.678c0-2.664,2.152-4.849,5.703-4.849
					c1.672,0,3.141,0.478,4.063,1.025l-0.752,2.185c-0.648-0.409-1.844-0.958-3.38-0.958c-1.775,0-2.767,1.025-2.767,2.255
					c0,1.366,0.991,1.98,3.141,2.801c2.87,1.092,4.337,2.526,4.337,4.983c0,2.902-2.253,4.952-6.18,4.952
					c-1.81,0-3.483-0.446-4.644-1.127L142.738,76.552z"/>
				<path fill="#FFFFFF" d="M173.058,79.626l-0.24-2.085h-0.101C171.795,78.84,170.019,80,167.662,80
					c-3.346,0-5.053-2.355-5.053-4.746c0-3.994,3.552-6.179,9.936-6.145v-0.343c0-1.366-0.375-3.823-3.756-3.823
					c-1.537,0-3.141,0.478-4.302,1.229l-0.682-1.982c1.365-0.887,3.345-1.467,5.429-1.467c5.052,0,6.282,3.45,6.282,6.76v6.181
					c0,1.434,0.067,2.834,0.272,3.961H173.058z M172.613,71.192c-3.278-0.068-6.999,0.511-6.999,3.721
					c0,1.947,1.298,2.867,2.834,2.867c2.152,0,3.518-1.363,3.994-2.764c0.103-0.308,0.17-0.648,0.17-0.955V71.192z"/>
				<path fill="#FFFFFF" d="M191.221,58.353v4.746h4.302v2.288h-4.302v8.913c0,2.047,0.581,3.209,2.254,3.209
					c0.784,0,1.364-0.104,1.741-0.205l0.136,2.251c-0.579,0.24-1.503,0.411-2.664,0.411c-1.398,0-2.528-0.446-3.243-1.262
					c-0.854-0.889-1.163-2.357-1.163-4.305v-9.014h-2.561v-2.288h2.561v-3.961L191.221,58.353z"/>
				<path fill="#FFFFFF" d="M212.732,75.119c0,1.707,0.033,3.209,0.135,4.507h-2.663l-0.171-2.698h-0.068
					c-0.784,1.331-2.528,3.072-5.464,3.072c-2.594,0-5.701-1.434-5.701-7.237v-9.665h3.004v9.151c0,3.142,0.957,5.26,3.688,5.26
					c2.014,0,3.414-1.4,3.959-2.734c0.172-0.442,0.274-0.99,0.274-1.536V63.099h3.004L212.732,75.119L212.732,75.119z"/>
				<path fill="#FFFFFF" d="M234.104,79.626l-0.238-2.085h-0.103C232.841,78.84,231.065,80,228.709,80
					c-3.345,0-5.055-2.355-5.055-4.746c0-3.994,3.553-6.179,9.938-6.145v-0.343c0-1.366-0.376-3.823-3.756-3.823
					c-1.538,0-3.142,0.478-4.302,1.229l-0.683-1.982c1.363-0.887,3.345-1.467,5.429-1.467c5.054,0,6.282,3.45,6.282,6.76v6.181
					c0,1.434,0.069,2.834,0.272,3.961H234.104z M233.661,71.192c-3.278-0.068-7.001,0.511-7.001,3.721
					c0,1.947,1.298,2.867,2.834,2.867c2.152,0,3.518-1.363,3.995-2.764c0.104-0.308,0.171-0.648,0.171-0.955L233.661,71.192
					L233.661,71.192z"/>
				<path fill="#FFFFFF" d="M241.411,55.381h3.004v24.245h-3.004V55.381z"/>
				<path fill="#FFFFFF" d="M261.249,79.01c-0.786,0.411-2.528,0.957-4.747,0.957c-4.985,0-8.23-3.38-8.23-8.435
					c0-5.087,3.484-8.775,8.879-8.775c1.775,0,3.346,0.442,4.165,0.853l-0.683,2.322c-0.717-0.409-1.843-0.785-3.482-0.785
					c-3.79,0-5.84,2.798-5.84,6.248c0,3.825,2.458,6.18,5.736,6.18c1.709,0,2.833-0.444,3.688-0.818L261.249,79.01z"/>
				<path fill="#FFFFFF" d="M273.914,79.626l-0.237-2.085h-0.104C272.651,78.84,270.877,80,268.521,80
					c-3.346,0-5.054-2.355-5.054-4.746c0-3.994,3.55-6.179,9.936-6.145v-0.343c0-1.366-0.376-3.823-3.756-3.823
					c-1.536,0-3.14,0.478-4.302,1.229l-0.682-1.982c1.366-0.887,3.345-1.467,5.428-1.467c5.054,0,6.284,3.45,6.284,6.76v6.181
					c0,1.434,0.067,2.834,0.271,3.961H273.914z M273.472,71.192c-3.279-0.068-7,0.511-7,3.721c0,1.947,1.298,2.867,2.833,2.867
					c2.15,0,3.517-1.363,3.995-2.764c0.103-0.308,0.171-0.648,0.171-0.955L273.472,71.192L273.472,71.192z"/>
				<path fill="#FFFFFF" d="M281.221,67.571c0-1.707-0.033-3.107-0.136-4.473h2.664l0.171,2.731h0.067
					c0.819-1.569,2.731-3.107,5.464-3.107c2.287,0,5.84,1.366,5.84,7.034v9.87h-3.004v-9.529c0-2.661-0.992-4.881-3.824-4.881
					c-1.98,0-3.517,1.401-4.03,3.075c-0.136,0.374-0.205,0.887-0.205,1.398v9.938h-3.004V67.571H281.221z"/>
				<path fill="#FFFFFF" d="M311.949,79.01c-0.783,0.411-2.526,0.957-4.744,0.957c-4.986,0-8.229-3.38-8.229-8.435
					c0-5.087,3.481-8.775,8.876-8.775c1.776,0,3.347,0.442,4.166,0.853l-0.683,2.322c-0.717-0.409-1.842-0.785-3.483-0.785
					c-3.789,0-5.837,2.798-5.837,6.248c0,3.825,2.458,6.18,5.735,6.18c1.708,0,2.834-0.444,3.687-0.818L311.949,79.01z"/>
				<path fill="#FFFFFF" d="M316.935,71.909c0.067,4.064,2.664,5.736,5.668,5.736c2.15,0,3.448-0.376,4.575-0.854l0.512,2.152
					c-1.058,0.479-2.867,1.025-5.498,1.025c-5.087,0-8.125-3.346-8.125-8.332c0-4.985,2.936-8.912,7.751-8.912
					c5.394,0,6.829,4.746,6.829,7.786c0,0.616-0.067,1.093-0.103,1.4L316.935,71.909L316.935,71.909z M325.746,69.756
					c0.032-1.912-0.787-4.881-4.167-4.881c-3.038,0-4.37,2.799-4.609,4.881H325.746z"/>
			</g>
		</g>
	</g>
</g>
<g id="Layer_2" display="none">
</g>
</svg>
