<?xml version="1.0" encoding="utf-8"?>
<!-- Generator: Adobe Illustrator 16.0.0, SVG Export Plug-In . SVG Version: 6.00 Build 0)  -->
<!DOCTYPE svg PUBLIC "-//W3C//DTD SVG 1.1//EN" "http://www.w3.org/Graphics/SVG/1.1/DTD/svg11.dtd">
<svg version="1.1" id="Capa_1" xmlns="http://www.w3.org/2000/svg" xmlns:xlink="http://www.w3.org/1999/xlink" x="0px" y="0px"
	 width="24px" height="24px" viewBox="0 0 24 24" enable-background="new 0 0 24 24" xml:space="preserve">
<g>
	<path fill="#FFFFFF" d="M21.137,7.516c-0.142-0.42-0.541-0.719-1.011-0.719h-7.835c-0.47,0-0.862,0.299-1.012,0.719l-1.481,4.267
		v5.699c0,0.392,0.321,0.712,0.712,0.712h0.712c0.392,0,0.712-0.32,0.712-0.712v-0.713h8.547v0.713c0,0.392,0.321,0.712,0.713,0.712
		h0.712c0.393,0,0.712-0.32,0.712-0.712v-5.699L21.137,7.516z M12.291,14.632c-0.591,0-1.068-0.478-1.068-1.068
		c0-0.592,0.477-1.068,1.068-1.068s1.069,0.477,1.069,1.068C13.359,14.154,12.882,14.632,12.291,14.632z M20.126,14.632
		c-0.592,0-1.069-0.478-1.069-1.068c0-0.592,0.478-1.068,1.069-1.068c0.591,0,1.068,0.477,1.068,1.068
		C21.194,14.154,20.717,14.632,20.126,14.632z M11.222,11.07l1.068-3.206h7.835l1.068,3.206H11.222z"/>
	<path fill="#FFFFFF" d="M0,0h24v24H0V0z"/>
	<g>
		<path fill="#FFFFFF" d="M6.188,9.429v2.409h2.267v0.954H6.188v2.44H5.171v-2.44H2.905v-0.954h2.266V9.429H6.188z"/>
	</g>
</g>
</svg>
