<?xml version="1.0" encoding="utf-8"?>
<!-- Generator: Adobe Illustrator 16.0.0, SVG Export Plug-In . SVG Version: 6.00 Build 0)  -->
<!DOCTYPE svg PUBLIC "-//W3C//DTD SVG 1.1//EN" "http://www.w3.org/Graphics/SVG/1.1/DTD/svg11.dtd">
<svg version="1.1" xmlns="http://www.w3.org/2000/svg" xmlns:xlink="http://www.w3.org/1999/xlink" x="0px" y="0px" width="40px"
	 height="40px" viewBox="0 0 40 40" enable-background="new 0 0 40 40" xml:space="preserve">
<g id="Layer_1">
	<path fill="#525659" d="M31.637,36.32h-1.836c1.02,0,1.844-0.828,1.844-1.836c0-1.031-0.824-1.852-1.844-1.852h-2.441
		c1.016,0,1.844-0.82,1.844-1.836s-0.828-1.844-1.844-1.844h-5.723v-16c3.504-0.75,4.926-2.656,4.926-6.391
		C26.563,2.273,24.289,0,20,0s-6.563,2.273-6.563,6.563c0,3.734,1.422,5.641,4.93,6.391v16h-5.727c-1.016,0-1.844,0.828-1.844,1.844
		s0.828,1.836,1.844,1.836h-2.441c-1.02,0-1.844,0.82-1.844,1.852c0,1.008,0.824,1.836,1.844,1.836h-1.84
		c-1.012,0-1.836,0.82-1.836,1.836C6.523,39.18,7.348,40,8.359,40h23.277c1.012,0,1.84-0.82,1.84-1.844
		C33.477,37.141,32.648,36.32,31.637,36.32z"/>
</g>
<g id="Layer_2" display="none">
</g>
</svg>
