<?xml version="1.0" encoding="utf-8"?>
<!-- Generator: Adobe Illustrator 16.0.0, SVG Export Plug-In . SVG Version: 6.00 Build 0)  -->
<!DOCTYPE svg PUBLIC "-//W3C//DTD SVG 1.1//EN" "http://www.w3.org/Graphics/SVG/1.1/DTD/svg11.dtd">
<svg version="1.1" id="Layer_1" xmlns="http://www.w3.org/2000/svg" xmlns:xlink="http://www.w3.org/1999/xlink" x="0px" y="0px"
	 width="137.593px" height="70.759px" viewBox="0 0 137.593 70.759" enable-background="new 0 0 137.593 70.759"
	 xml:space="preserve">
<path fill="#FFFFFF" d="M102.497,28.769c-1.664,1.714-2.559,3.973-2.521,6.361c0.074,4.93,4.146,8.879,9.076,8.803
	c2.387-0.036,4.617-1,6.281-2.715c1.662-1.714,2.557-3.973,2.521-6.361c-0.035-2.388-1-4.619-2.715-6.281
	c-1.715-1.663-3.973-2.559-6.361-2.522S104.159,27.054,102.497,28.769z M102.396,35.093c-0.055-3.601,2.818-6.564,6.42-6.619
	c3.602-0.056,6.564,2.818,6.619,6.42c0.055,3.601-2.818,6.564-6.42,6.62C105.413,41.568,102.45,38.693,102.396,35.093z
	 M103.163,35.021c0.051,3.241,2.719,5.828,5.959,5.778s5.828-2.717,5.777-5.957c-0.049-3.24-2.717-5.827-5.957-5.778
	S103.114,31.78,103.163,35.021z M104.538,34.113l2.922-0.532l-0.355-2.879l1.324-0.375l1.414,2.552l2.912-1.153l0.723,0.921
	l-2.045,2.439l2.027,2.174l-0.914,1.213l-2.764-1.556l-1.611,2.642l-1.428-0.555l0.312-2.756l-2.357-0.451L104.538,34.113z
	 M107.347,34.958c0.014,0.931,0.779,1.674,1.711,1.659c0.932-0.014,1.674-0.779,1.66-1.711c-0.014-0.931-0.781-1.674-1.711-1.659
	C108.075,33.261,107.333,34.027,107.347,34.958z M107.927,34.949c-0.01-0.61,0.479-1.113,1.088-1.122
	c0.611-0.01,1.113,0.478,1.123,1.088c0.01,0.611-0.479,1.113-1.09,1.123C108.438,36.047,107.935,35.56,107.927,34.949z
	 M16.284,37.138c0.703,1.146,10.393,4.15,14.123,3.453c0.109-0.001-1.635-3.651-1.67-5.852c-0.039-2.703,0.975-5.262,2.857-7.202
	c1.883-1.941,4.408-3.053,7.111-3.075c4.021-0.031,7.203,2.855,7.203,2.855c1.941,1.883,3.033,4.409,3.074,7.113
	c0.02,1.313-1.32,6.43-1.32,6.43H98.13c0,0,0.961-5.54,0.959-5.717c-0.041-2.625,0.943-5.108,2.771-6.993s4.279-2.944,6.904-2.983
	c2.625-0.041,5.107,0.943,6.992,2.771s2.945,4.279,2.984,6.904c0.029,1.983-0.525,3.886-1.586,5.512
	c4.984,0.245,10.131-0.15,15.084-0.091c1.039,0.254,2.188,0.116,3.314,0.045c0.273-0.095,0.773-0.124,0.66-0.551
	c0.006-0.474-0.549-0.629-0.748-0.983c-0.713-1.49-0.469-3.663-1.02-5.11c0-2.111-2.266-2.346-3.559-3.421
	c-6.221-3.262-12.494-6.169-19.363-7.209c-2.861-0.478-5.787-0.697-8.457-1.922c-0.809,0.348-1.85,0.231-2.75-0.164l-11.354-3.923
	c-2.404-1.132-4.926-1.934-7.426-2.802c-8.447-1.324-17.824-0.931-26.432,1.168c-7.662,1.292-15.709,3.071-23.1,5.056
	c-1.014-1.36-1.561-3.028-2.514-4.428c-1.238-0.326-11.254-1.337-13.182-2.431C16.147,13.545,16.284,37.138,16.284,37.138z
	 M132.907,34.656l1.309-0.694l0.711,4.586l0.414,0.604l-1.551,0.327l-0.25-0.943L132.907,34.656z M96.603,22.516
	c-6.227,0.091-13.17-7.176-13.17-7.176l17.27,6.071C100.702,21.411,98.103,22.494,96.603,22.516z M64.349,21.53l-2.287-5.718
	c8.873-1.933,17.744-0.039,17.744-0.039c4.77,2.365,11.631,6.979,11.631,6.979L64.349,21.53z M48.341,21.411l2.602-1.38
	c4.299-2.444,10.529-4.021,10.529-4.021l1.971,5.521L48.341,21.411z M23.079,29.582l-0.842-5.777
	c-0.029-0.195,0.076-0.356,0.234-0.359l0.611-0.01c0.158-0.001,0.309,0.155,0.338,0.351l0.842,5.777
	c0.027,0.196-0.078,0.356-0.236,0.359l-0.609,0.009C23.259,29.935,23.106,29.777,23.079,29.582z M21.433,29.607l-0.842-5.778
	c-0.027-0.196,0.076-0.355,0.234-0.358l0.611-0.009c0.158-0.003,0.311,0.153,0.338,0.349l0.842,5.778
	c0.029,0.195-0.076,0.356-0.234,0.358l-0.611,0.01C21.612,29.959,21.462,29.803,21.433,29.607z M19.786,29.632l-0.84-5.777
	c-0.029-0.196,0.076-0.356,0.234-0.358l0.611-0.009c0.156-0.003,0.309,0.153,0.338,0.349l0.84,5.778
	c0.029,0.195-0.076,0.355-0.236,0.358l-0.607,0.009C19.966,29.984,19.815,29.828,19.786,29.632z M17.534,23.521l0.611-0.01
	c0.158-0.001,0.309,0.155,0.336,0.351l0.842,5.778c0.029,0.195-0.076,0.356-0.234,0.358l-0.609,0.009
	c-0.158,0.003-0.311-0.153-0.338-0.349L17.3,23.88C17.272,23.685,17.376,23.523,17.534,23.521z M134.284,39.033
	c-0.242,0.003-0.486-0.312-0.543-0.702l-0.445-3.038c-0.057-0.392,0.092-0.711,0.334-0.715c0.244-0.004,0.488,0.31,0.545,0.701
	l0.445,3.039C134.677,38.709,134.528,39.029,134.284,39.033z M29.972,34.73c0.074,4.93,4.145,8.879,9.076,8.804
	c2.387-0.036,4.617-1.001,6.281-2.715c1.662-1.714,2.559-3.974,2.521-6.362c-0.037-2.388-1-4.618-2.715-6.28
	c-1.715-1.663-3.975-2.559-6.361-2.522c-2.389,0.036-4.619,1.001-6.281,2.715C30.831,30.084,29.935,32.343,29.972,34.73z
	 M32.392,34.693c-0.057-3.601,2.818-6.564,6.42-6.619c3.6-0.055,6.564,2.819,6.619,6.42c0.057,3.602-2.82,6.565-6.42,6.62
	C35.409,41.169,32.446,38.295,32.392,34.693z M33.159,34.623c0.051,3.24,2.719,5.827,5.959,5.778c3.24-0.05,5.826-2.717,5.777-5.957
	c-0.049-3.241-2.717-5.828-5.957-5.778C35.698,28.715,33.11,31.382,33.159,34.623z M34.694,35.398l-0.16-1.684l2.834-0.566
	l-0.268-2.845l1.324-0.375l1.416,2.551l2.908-1.152l0.725,0.92l-2.199,2.525l2.182,2.089l-0.914,1.212l-2.85-1.556l-1.525,2.643
	l-1.428-0.555l0.312-2.756L34.694,35.398z M37.343,34.559c0.014,0.932,0.779,1.675,1.711,1.66s1.674-0.78,1.66-1.712
	c-0.014-0.93-0.781-1.674-1.711-1.659C38.071,32.862,37.329,33.628,37.343,34.559z M37.923,34.551
	c-0.01-0.611,0.479-1.113,1.088-1.123c0.611-0.01,1.113,0.479,1.123,1.089s-0.479,1.113-1.088,1.122
	C38.435,35.648,37.933,35.16,37.923,34.551z"/>
<path fill="#FFFFFF" d="M28.038,50.059c-1.373,1.25-2.748,2.502-4.123,3.754c-4.199-0.046-8.506-0.214-12.924-0.518
	c1.604-1.244,3.209-2.489,4.812-3.732C19.978,49.829,24.054,49.991,28.038,50.059z M50.038,49.019
	c-3.447,0.294-6.982,0.552-10.602,0.765c-1.186,1.187-2.371,2.373-3.557,3.56c3.783-0.312,7.467-0.683,11.051-1.093
	C47.97,51.173,49.003,50.096,50.038,49.019z M69.022,47.106c-2.969,0.286-6.014,0.6-9.137,0.929
	c-0.918,0.953-1.838,1.908-2.756,2.861c3.217-0.444,6.346-0.867,9.389-1.251C67.354,48.8,68.188,47.954,69.022,47.106z
	 M82.897,48.868c0.77-0.79,1.535-1.581,2.303-2.371c-2.432-0.063-5.029-0.062-7.711,0.015c-0.779,0.782-1.559,1.566-2.34,2.348
	C77.866,48.763,80.487,48.77,82.897,48.868z M97.864,47.873c-2.049-0.317-4.076-0.609-6.119-0.865c-0.869,0.87-1.74,1.74-2.611,2.61
	c1.875,0.371,3.719,0.789,5.562,1.243C95.753,49.865,96.808,48.87,97.864,47.873z M112.458,50.005
	c-2.875-0.353-5.527-0.715-7.99-1.079c-1.277,1.145-2.553,2.288-3.832,3.434c2.246,0.514,4.691,1.019,7.375,1.508
	C109.493,52.579,110.974,51.294,112.458,50.005z M117.876,55.146c4.023,0.332,8.48,0.604,13.41,0.807
	c1.646-1.455,3.297-2.91,4.945-4.364c-4.908-0.171-9.393-0.387-13.488-0.642C121.12,52.347,119.499,53.745,117.876,55.146z
	 M23.915,53.812c-1.375,1.251-2.75,2.5-4.123,3.752c4.295-0.11,8.471-0.337,12.531-0.664c1.186-1.187,2.369-2.372,3.557-3.558
	C31.995,53.587,28.007,53.746,23.915,53.812z M46.931,52.25c-1.031,1.077-2.066,2.153-3.102,3.231
	c3.619-0.562,7.133-1.142,10.543-1.722c0.92-0.955,1.84-1.907,2.758-2.863C53.823,51.355,50.427,51.811,46.931,52.25z
	 M66.519,49.646c-0.836,0.847-1.672,1.693-2.506,2.539c3.021-0.414,5.953-0.745,8.795-0.979c0.781-0.783,1.561-1.564,2.342-2.347
	C72.354,49.048,69.476,49.314,66.519,49.646z M82.897,48.868c-0.768,0.789-1.535,1.581-2.303,2.371
	c2.154,0.238,4.117,0.573,5.93,0.989c0.869-0.87,1.74-1.741,2.609-2.61C87.181,49.302,85.118,49.048,82.897,48.868z M94.696,50.861
	c-1.057,0.998-2.115,1.994-3.17,2.992c1.67,0.626,3.414,1.277,5.279,1.938c1.277-1.145,2.555-2.288,3.83-3.433
	C98.548,51.849,96.583,51.346,94.696,50.861z M103.565,57.729c2.791,0.591,5.922,1.133,9.445,1.615
	c1.621-1.4,3.244-2.799,4.865-4.198c-3.629-0.386-6.904-0.815-9.865-1.279C106.528,55.155,105.048,56.441,103.565,57.729z
	 M1.362,60.762c4.908,0.376,9.674,0.556,14.305,0.557c1.373-1.251,2.75-2.501,4.125-3.754c-4.414-0.022-8.953-0.196-13.615-0.535
	C4.573,58.272,2.968,59.517,1.362,60.762z M28.765,60.456c4.109-0.51,8.096-1.097,11.961-1.743c1.033-1.077,2.07-2.155,3.104-3.231
	c-3.727,0.528-7.561,1.007-11.506,1.419C31.136,58.085,29.95,59.271,28.765,60.456z M51.618,56.621
	c3.404-0.679,6.699-1.318,9.889-1.896c0.834-0.847,1.67-1.693,2.506-2.54c-3.117,0.48-6.328,1.011-9.641,1.575
	C53.454,54.714,52.536,55.668,51.618,56.621z M72.808,51.206c-0.779,0.784-1.561,1.564-2.34,2.348
	c2.791-0.135,5.457-0.113,7.826,0.057c0.768-0.791,1.535-1.581,2.301-2.371C78.206,51.106,75.562,51.089,72.808,51.206z
	 M83.913,54.836c1.547,0.604,3.01,1.275,4.443,2.007c1.059-0.997,2.113-1.994,3.17-2.989c-1.641-0.594-3.291-1.138-5.002-1.625
	C85.653,53.098,84.784,53.968,83.913,54.836z M92.976,59.226c1.812,0.811,3.844,1.603,6.145,2.367
	c1.482-1.288,2.963-2.575,4.445-3.863c-2.492-0.626-4.73-1.276-6.76-1.938C95.53,56.938,94.253,58.081,92.976,59.226z
	 M121.392,64.686c1.65-1.456,3.299-2.911,4.949-4.365c-4.951-0.235-9.379-0.563-13.33-0.976c-1.621,1.398-3.246,2.8-4.867,4.198
	C112.022,64.034,116.423,64.419,121.392,64.686z"/>
</svg>
