<?xml version="1.0" encoding="utf-8"?>
<!-- Generator: Adobe Illustrator 16.0.0, SVG Export Plug-In . SVG Version: 6.00 Build 0)  -->
<!DOCTYPE svg PUBLIC "-//W3C//DTD SVG 1.1//EN" "http://www.w3.org/Graphics/SVG/1.1/DTD/svg11.dtd">
<svg version="1.1" xmlns="http://www.w3.org/2000/svg" xmlns:xlink="http://www.w3.org/1999/xlink" x="0px" y="0px" width="100px"
	 height="45px" viewBox="0 0 100 45" enable-background="new 0 0 100 45" xml:space="preserve">
<g id="Capa_1">
	<g>
		<g>
			
				<rect x="86.832" y="8.137" transform="matrix(-0.6247 0.7809 -0.7809 -0.6247 157.5376 -56.0636)" fill="#C7CFE2" width="10.821" height="3.382"/>
			<path fill="#C7CFE2" d="M36.621,17.246l5.942-7.924c0.958-1.278,2.46-2.029,4.058-2.029h8.331c0.01,0,0.02,0,0.03,0
				c1.774,0.003,3.397,1.011,4.311,2.533l1.312,2.187c0.576,0.96-0.024,2.197-1.136,2.338L36.621,17.246z"/>
			<path fill="#C7CFE2" d="M26.344,15.741l6.758,3.379L44.928,5.814h-7.476c-0.174,0.117-0.333,0.236-0.477,0.353
				C34.24,8.398,26.345,15.741,26.344,15.741z"/>
		</g>
		<path fill="#FF6464" d="M2.69,30.949v5.068h82.793l11.827-3.379V17.431c0-2.799-2.27-5.069-5.069-5.069H77.434L65.537,6.413
			c-3.286-1.644-6.91-2.5-10.584-2.5h-8.336c-5.768,0-8.303,1.162-9.64,2.253c-0.361,0.294-0.816,0.682-1.328,1.126h2.591
			c0.668,0,1.049,0.762,0.649,1.296l-6.28,8.374c-0.314-0.127-0.619-0.275-0.904-0.465l-2.392-1.595
			c-0.834-0.555-1.813-0.852-2.814-0.852h-6.914C10.254,14.052,2.69,21.617,2.69,30.949z M36.621,17.246l5.942-7.924
			c0.958-1.278,2.46-2.029,4.058-2.029h8.331c0.01,0,0.02,0,0.03,0c1.774,0.003,3.397,1.011,4.311,2.533l1.312,2.187
			c0.576,0.96-0.024,2.197-1.136,2.338L36.621,17.246z"/>
		<path fill="#D2555A" d="M1,36.017c0-0.934,0.756-1.69,1.69-1.69h76.034c0.934,0,1.69,0.756,1.69,1.69s-0.756,1.69-1.69,1.69H2.69
			C1.756,37.707,1,36.951,1,36.017z"/>
		<circle fill="#D7DEED" cx="19.586" cy="30.949" r="8.448"/>
		<path fill="#464655" d="M9.449,30.949c0-5.591,4.547-10.138,10.137-10.138c5.591,0,10.139,4.547,10.139,10.138
			c0,5.59-4.548,10.138-10.139,10.138C13.996,41.086,9.449,36.539,9.449,30.949z M12.827,30.949c0,3.727,3.032,6.758,6.758,6.758
			c3.728,0,6.759-3.032,6.759-6.758c0-3.728-3.03-6.759-6.759-6.759C15.859,24.19,12.827,27.221,12.827,30.949z"/>
		<circle fill="#B8BFD4" cx="19.587" cy="30.949" r="3.379"/>
		<g>
			<path fill="#D2555A" d="M82.154,36.427c-0.228-0.904,0.323-1.822,1.229-2.048L96.901,31c0.904-0.233,1.823,0.322,2.048,1.229
				c0.228,0.904-0.323,1.821-1.229,2.047l-13.517,3.379c-0.137,0.035-0.275,0.052-0.411,0.052
				C83.034,37.707,82.346,37.196,82.154,36.427z"/>
			<path fill="#D2555A" d="M97.31,32.637l-3.379,1.69v-7.048c0-0.896,0.356-1.756,0.989-2.391l2.39-2.389
				C97.31,22.5,97.31,32.638,97.31,32.637z"/>
			<path fill="#D2555A" d="M36.688,28.474l-2.562-2.561c-0.66-0.66-0.66-1.73,0-2.39c0.661-0.66,1.729-0.66,2.389,0l2.562,2.56
				c0.957,0.957,2.231,1.485,3.586,1.485h29.303c0.934,0,1.689,0.756,1.689,1.69c0,0.934-0.756,1.69-1.689,1.69H42.663
				C40.405,30.949,38.283,30.068,36.688,28.474z"/>
		</g>
		<circle fill="#D7DEED" cx="80.414" cy="30.949" r="8.448"/>
		<path fill="#464655" d="M70.276,30.949c0-5.591,4.547-10.138,10.138-10.138c5.59,0,10.138,4.547,10.138,10.138
			c0,5.59-4.547,10.138-10.138,10.138C74.823,41.086,70.276,36.539,70.276,30.949z M73.655,30.949c0,3.727,3.032,6.758,6.759,6.758
			s6.758-3.032,6.758-6.758c0-3.728-3.031-6.759-6.758-6.759C76.686,24.19,73.655,27.221,73.655,30.949z"/>
		<circle fill="#B8BFD4" cx="80.414" cy="30.949" r="3.379"/>
		<path fill="#FF8B8B" d="M92.241,12.362H77.434c-1.563,0-15.959,1.754-27.274,3.168l-13.539,1.716
			c-3.399,0.448-4.011-0.282-4.011-0.282c-0.315-0.127-0.62-0.275-0.905-0.466l-2.392-1.595c-0.834-0.555-1.813-0.852-2.813-0.852
			h-6.915c-8.695,0-15.85,6.571-16.786,15.018c8.563-15.455,21.844-10.709,25.785-8.85c0.823,0.389,1.741,0.53,2.646,0.439
			l64.864-6.486C95.165,13.075,93.793,12.362,92.241,12.362z"/>
		<path fill="#FF6464" d="M88.862,7.293v-1.69c0-0.933,0.757-1.69,1.69-1.69h7.133c0.647,0,1.104,0.634,0.899,1.248L98.08,6.672
			c-0.459,1.38-1.751,2.311-3.206,2.311h-4.323C89.619,8.983,88.862,8.227,88.862,7.293z"/>
	</g>
</g>
<g id="Capa_2">
</g>
</svg>
