<?xml version="1.0" encoding="utf-8"?>
<!-- Generator: Adobe Illustrator 16.0.0, SVG Export Plug-In . SVG Version: 6.00 Build 0)  -->
<!DOCTYPE svg PUBLIC "-//W3C//DTD SVG 1.1//EN" "http://www.w3.org/Graphics/SVG/1.1/DTD/svg11.dtd">
<svg version="1.1" id="Capa_1" xmlns="http://www.w3.org/2000/svg" xmlns:xlink="http://www.w3.org/1999/xlink" x="0px" y="0px"
	 width="63px" height="56px" viewBox="-39 0 63 56" enable-background="new -39 0 63 56" xml:space="preserve">
<g>
	<path d="M2.787,21.884c-0.174-0.516-0.665-0.883-1.241-0.883h-9.624c-0.578,0-1.059,0.367-1.243,0.883l-1.82,5.24v7.001
		c0,0.48,0.394,0.874,0.875,0.874h0.875c0.481,0,0.875-0.394,0.875-0.874v-0.876H1.982v0.876c0,0.48,0.395,0.874,0.875,0.874h0.875
		c0.482,0,0.875-0.394,0.875-0.874v-7.001L2.787,21.884z M-8.079,30.624c-0.727,0-1.313-0.586-1.313-1.312
		c0-0.728,0.586-1.313,1.313-1.313c0.726,0,1.313,0.585,1.313,1.313C-6.766,30.038-7.353,30.624-8.079,30.624z M1.545,30.624
		c-0.727,0-1.313-0.586-1.313-1.312C0.232,28.585,0.818,28,1.545,28c0.726,0,1.312,0.585,1.312,1.313
		C2.857,30.038,2.271,30.624,1.545,30.624z M-9.391,26.25l1.313-3.937h9.624l1.312,3.937H-9.391z"/>
	<g>
		<path d="M-15.574,24.234v2.96h2.784v1.17h-2.784v2.998h-1.25v-2.998h-2.783v-1.17h2.783v-2.96H-15.574z"/>
	</g>
</g>
</svg>
