<?xml version="1.0" encoding="utf-8"?>
<!-- Generator: Adobe Illustrator 16.0.0, SVG Export Plug-In . SVG Version: 6.00 Build 0)  -->
<!DOCTYPE svg PUBLIC "-//W3C//DTD SVG 1.1//EN" "http://www.w3.org/Graphics/SVG/1.1/DTD/svg11.dtd">
<svg version="1.1" id="Layer_1" xmlns="http://www.w3.org/2000/svg" xmlns:xlink="http://www.w3.org/1999/xlink" x="0px" y="0px"
	 width="60px" height="60px" viewBox="0 0 60 60" enable-background="new 0 0 60 60" xml:space="preserve">
<path fill="#506478" d="M48.951,17.21c-0.699-0.699-1.541-1.049-2.522-1.049H13.571c-0.982,0-1.823,0.35-2.522,1.049
	C10.35,17.91,10,18.75,10,19.732v24.286c0,0.981,0.35,1.822,1.049,2.521c0.699,0.7,1.54,1.05,2.522,1.05h32.857
	c0.981,0,1.823-0.35,2.522-1.05C49.65,45.841,50,45,50,44.019V19.732C50,18.75,49.65,17.91,48.951,17.21z M47.143,44.019
	c0,0.193-0.07,0.36-0.212,0.502s-0.31,0.212-0.502,0.212H13.571c-0.193,0-0.361-0.07-0.502-0.212
	c-0.142-0.142-0.212-0.309-0.212-0.502V26.875c0.476,0.536,0.99,1.027,1.541,1.474c3.988,3.065,7.157,5.58,9.509,7.545
	c0.759,0.64,1.376,1.138,1.853,1.495s1.12,0.718,1.931,1.083c0.811,0.364,1.573,0.547,2.288,0.547H30h0.022
	c0.714,0,1.477-0.183,2.288-0.547c0.811-0.365,1.454-0.726,1.931-1.083c0.476-0.357,1.094-0.855,1.853-1.495
	c2.352-1.965,5.521-4.479,9.509-7.545c0.55-0.446,1.063-0.938,1.54-1.474V44.019z M47.143,20.312c0,0.134,0,0.216,0,0.246
	c0,0.878-0.346,1.856-1.037,2.935c-0.692,1.079-1.44,1.938-2.244,2.578c-2.872,2.263-5.855,4.621-8.951,7.076
	c-0.089,0.075-0.35,0.294-0.781,0.658c-0.432,0.365-0.773,0.645-1.026,0.838s-0.584,0.428-0.993,0.703
	c-0.41,0.275-0.785,0.479-1.127,0.613c-0.343,0.134-0.663,0.201-0.96,0.201H30h-0.022c-0.298,0-0.618-0.067-0.959-0.201
	c-0.343-0.134-0.718-0.338-1.127-0.613c-0.41-0.275-0.74-0.51-0.993-0.703c-0.253-0.193-0.596-0.473-1.027-0.838
	c-0.432-0.364-0.692-0.583-0.781-0.658c-3.095-2.455-6.079-4.813-8.951-7.076c-2.188-1.726-3.281-3.839-3.281-6.339
	c0-0.193,0.071-0.36,0.212-0.502c0.141-0.142,0.309-0.212,0.502-0.212h32.857c0.118,0,0.224,0.019,0.312,0.056
	s0.156,0.093,0.2,0.167c0.045,0.075,0.086,0.142,0.123,0.201s0.06,0.152,0.067,0.279c0.007,0.126,0.011,0.223,0.011,0.29
	C47.143,20.078,47.143,20.179,47.143,20.312z"/>
<g id="Layer_2" display="none">
</g>
</svg>
