<?xml version="1.0" encoding="utf-8"?>
<!-- Generator: Adobe Illustrator 16.0.0, SVG Export Plug-In . SVG Version: 6.00 Build 0)  -->
<!DOCTYPE svg PUBLIC "-//W3C//DTD SVG 1.1//EN" "http://www.w3.org/Graphics/SVG/1.1/DTD/svg11.dtd">
<svg version="1.1" xmlns="http://www.w3.org/2000/svg" xmlns:xlink="http://www.w3.org/1999/xlink" x="0px" y="0px" width="60px"
	 height="60px" viewBox="0 0 60 60" enable-background="new 0 0 60 60" xml:space="preserve">
<g id="Layer_1">
	<g>
		<polyline opacity="0.898" fill="#506478" enable-background="new    " points="7.856,39.985 13.226,35.952 15.965,37.951 
			26.812,29.924 30.843,32.92 33.575,30.926 33.575,39.985 7.856,39.985 		"/>
		<path opacity="0.898" fill="#506478" enable-background="new    " d="M12.636,22.669c2,0,3.627,1.516,3.627,3.379
			c0,1.871-1.627,3.38-3.627,3.38c-2.006,0-3.628-1.509-3.628-3.38C9.009,24.185,10.631,22.669,12.636,22.669"/>
		<path fill="#506478" d="M55.278,16.475L45.224,4.812L43.23,2.5H19.469c-3.191,0-5.774,2.584-5.774,5.775v7.339h3.578l-0.002-5.933
			c0.008-1.795,1.45-3.246,3.239-3.246l20.324-0.018v9.627c0.004,3.584,2.899,6.49,6.485,6.49h7.036l-0.342,27.773
			c-0.011,1.786-1.453,3.227-3.245,3.241l-30.515-0.015c-1.634,0-2.947-1.603-2.958-3.572v-2.354h-3.584v3.504
			c0,3.528,2.36,6.388,5.26,6.388l32.839-0.007c3.192,0,5.778-2.593,5.778-5.78V19.165L55.278,16.475"/>
		<path fill="#506478" d="M39.654,49.398H2.41V13.826h37.244V49.398 M5.987,45.815h30.086V17.408H5.987"/>
	</g>
</g>
<g id="Layer_2" display="none">
</g>
</svg>
