<?xml version="1.0" encoding="utf-8"?>
<!-- Generator: Adobe Illustrator 16.0.0, SVG Export Plug-In . SVG Version: 6.00 Build 0)  -->
<!DOCTYPE svg PUBLIC "-//W3C//DTD SVG 1.1//EN" "http://www.w3.org/Graphics/SVG/1.1/DTD/svg11.dtd">
<svg version="1.1" xmlns="http://www.w3.org/2000/svg" xmlns:xlink="http://www.w3.org/1999/xlink" x="0px" y="0px" width="40px"
	 height="40px" viewBox="0 0 40 40" enable-background="new 0 0 40 40" xml:space="preserve">
<g id="Layer_1">
	<g>
		<path fill="#525659" d="M20,8.125c-9.815,0-18.017,6.912-20,16.139h1.459c0.375-1.609,0.956-3.141,1.707-4.564l2.319,1.336
			l0.724-1.248L3.89,18.446c1.519-2.412,3.565-4.453,5.975-5.975l1.338,2.319l1.25-0.724l-1.336-2.314
			c2.452-1.299,5.219-2.078,8.16-2.185v2.672h1.445V9.568c2.941,0.106,5.71,0.886,8.162,2.185l-1.336,2.314l1.25,0.724l1.338-2.319
			c2.41,1.521,4.456,3.563,5.975,5.975l-2.319,1.341l0.724,1.248l2.319-1.336c0.751,1.424,1.331,2.955,1.705,4.564H40
			C38.017,15.037,29.815,8.125,20,8.125L20,8.125z"/>
		<path fill="#525659" d="M18.683,25.567c-1.162,0.51-1.974,1.665-1.974,3.015c0,1.818,1.473,3.294,3.291,3.294
			s3.291-1.476,3.291-3.294c0-1.039-0.484-1.967-1.238-2.569l0.995-12.024C23.048,13.988,20.16,21.795,18.683,25.567L18.683,25.567z
			"/>
	</g>
</g>
<g id="Layer_2" display="none">
</g>
</svg>
