<?xml version="1.0" encoding="utf-8"?>
<!-- Generator: Adobe Illustrator 16.0.0, SVG Export Plug-In . SVG Version: 6.00 Build 0)  -->
<!DOCTYPE svg PUBLIC "-//W3C//DTD SVG 1.1//EN" "http://www.w3.org/Graphics/SVG/1.1/DTD/svg11.dtd">
<svg version="1.1" id="Layer_1" xmlns="http://www.w3.org/2000/svg" xmlns:xlink="http://www.w3.org/1999/xlink" x="0px" y="0px"
	 width="300px" height="200px" viewBox="0 0 300 200" enable-background="new 0 0 300 200" xml:space="preserve">
<rect fill="#C8C8C8" width="300" height="200"/>
<g>
	<path fill="#64696E" d="M212.548,125.241l-54.571-88.291c-4.393-7.105-11.54-7.125-15.942,0l-54.572,88.291
		c-5.897,9.536-1.599,17.215,9.556,17.215h105.968C214.145,142.456,218.423,134.748,212.548,125.241z M204.02,137.397H95.818
		c-5.561,0-7.71-3.814-4.766-8.574l55.68-89.975c1.762-2.847,4.613-2.836,6.367,0l55.683,89.975
		C211.713,133.558,209.52,137.397,204.02,137.397z"/>
	<path fill="#64696E" d="M150.007,66.559c-2.794,0-5.061,2.293-5.061,5.045v30.389c0,2.786,2.246,5.044,5.061,5.044
		c2.796,0,5.06-2.292,5.06-5.044V71.604C155.066,68.817,152.822,66.559,150.007,66.559L150.007,66.559z"/>
	<path fill="#64696E" d="M150.007,127.276c2.796,0,5.06-2.264,5.06-5.061c0-2.795-2.264-5.059-5.06-5.059
		c-2.794,0-5.061,2.264-5.061,5.059C144.946,125.013,147.212,127.276,150.007,127.276L150.007,127.276z"/>
</g>
<text transform="matrix(1 0 0 1 17.0117 177.6748)" fill="#64696E" font-family="'Drugs'" font-size="22">IMAGEN NO DISPONIBLE</text>
</svg>
