<?xml version="1.0" encoding="utf-8"?>
<!-- Generator: Adobe Illustrator 16.0.0, SVG Export Plug-In . SVG Version: 6.00 Build 0)  -->
<!DOCTYPE svg PUBLIC "-//W3C//DTD SVG 1.1//EN" "http://www.w3.org/Graphics/SVG/1.1/DTD/svg11.dtd">
<svg version="1.1" id="Capa_1" xmlns="http://www.w3.org/2000/svg" xmlns:xlink="http://www.w3.org/1999/xlink" x="0px" y="0px"
	 width="280px" height="60px" viewBox="0 0 280 60" enable-background="new 0 0 280 60" xml:space="preserve">
<g>
	<g>
		<g>
			<path fill="#DEB12C" d="M93.788,22.157c-1.317,1.361-2.03,3.154-2.003,5.051c0.063,3.915,3.295,7.05,7.209,6.989
				c1.895-0.029,3.665-0.792,4.985-2.156c1.316-1.359,2.03-3.153,2.004-5.05c-0.034-1.896-0.795-3.667-2.155-4.986
				c-1.362-1.323-3.157-2.031-5.056-2.005C96.88,20.028,95.109,20.795,93.788,22.157z M93.709,27.177
				c-0.043-2.857,2.236-5.209,5.095-5.254c2.858-0.043,5.214,2.237,5.257,5.096c0.044,2.859-2.237,5.213-5.1,5.26
				C96.104,32.318,93.751,30.037,93.709,27.177z M94.313,27.124c0.041,2.57,2.164,4.627,4.732,4.588
				c2.574-0.04,4.633-2.159,4.592-4.732c-0.039-2.571-2.157-4.626-4.731-4.588C96.335,22.43,94.275,24.548,94.313,27.124z
				 M95.405,26.401l2.325-0.424l-0.287-2.283l1.051-0.3l1.125,2.029l2.311-0.917l0.577,0.729l-1.628,1.938l1.613,1.727l-0.726,0.961
				l-2.192-1.234l-1.281,2.096l-1.135-0.438l0.246-2.191l-1.869-0.357L95.405,26.401z M97.635,27.071
				c0.017,0.739,0.621,1.33,1.361,1.319c0.74-0.012,1.328-0.622,1.32-1.36c-0.011-0.74-0.619-1.331-1.361-1.314
				C98.217,25.723,97.627,26.333,97.635,27.071z M98.096,27.064c-0.003-0.486,0.384-0.885,0.865-0.892
				c0.488-0.006,0.888,0.383,0.895,0.864c0.006,0.486-0.385,0.886-0.864,0.892C98.507,27.936,98.104,27.548,98.096,27.064z
				 M25.332,28.803c0.564,0.908,8.259,3.293,11.219,2.74c0.09,0-1.299-2.897-1.325-4.647c-0.03-2.145,0.77-4.177,2.27-5.717
				c1.496-1.543,3.5-2.424,5.646-2.443c3.194-0.022,5.719,2.268,5.719,2.268c1.544,1.495,2.406,3.502,2.44,5.649
				c0.012,1.042-1.05,5.103-1.05,5.103h40.07c0,0,0.762-4.399,0.762-4.537c-0.031-2.085,0.751-4.058,2.2-5.555
				c1.454-1.495,3.4-2.336,5.479-2.369c2.086-0.034,4.06,0.748,5.553,2.202c1.5,1.451,2.338,3.398,2.372,5.48
				c0.021,1.575-0.42,3.086-1.259,4.375c3.955,0.196,8.044-0.117,11.973-0.069c0.824,0.2,1.741,0.09,2.636,0.038
				c0.211-0.078,0.608-0.1,0.52-0.44c0.005-0.375-0.432-0.497-0.59-0.78c-0.571-1.182-0.376-2.908-0.813-4.059
				c0-1.673-1.8-1.861-2.821-2.717c-4.944-2.588-9.919-4.895-15.376-5.724c-2.271-0.379-4.593-0.552-6.719-1.523
				c-0.635,0.274-1.464,0.185-2.183-0.133l-9.01-3.112c-1.91-0.9-3.911-1.537-5.896-2.225c-6.706-1.052-14.153-0.741-20.988,0.928
				c-6.08,1.024-12.473,2.438-18.338,4.013c-0.81-1.081-1.242-2.406-1.995-3.515c-0.983-0.26-8.938-1.063-10.467-1.931
				C25.23,10.071,25.332,28.803,25.332,28.803z M117.935,26.833l1.032-0.55l0.571,3.638l0.325,0.481l-1.228,0.257l-0.197-0.749
				L117.935,26.833z M89.111,17.193c-4.95,0.07-10.463-5.696-10.463-5.696l13.711,4.817C92.359,16.314,90.296,17.173,89.111,17.193z
				 M63.496,16.411l-1.813-4.54c7.04-1.535,14.09-0.031,14.09-0.031c3.784,1.877,9.236,5.541,9.236,5.541L63.496,16.411z
				 M50.79,16.314l2.066-1.095c3.409-1.941,8.36-3.192,8.36-3.192l1.564,4.384L50.79,16.314z M30.732,22.802l-0.671-4.584
				c-0.02-0.156,0.064-0.284,0.188-0.288l0.486-0.005c0.128-0.001,0.246,0.121,0.268,0.275l0.669,4.588
				c0.021,0.156-0.063,0.283-0.187,0.285l-0.489,0.008C30.875,23.082,30.753,22.956,30.732,22.802z M29.425,22.825l-0.667-4.589
				c-0.026-0.156,0.059-0.284,0.186-0.286l0.485-0.005c0.122-0.001,0.242,0.122,0.27,0.276l0.667,4.587
				c0.023,0.156-0.059,0.284-0.19,0.284L29.695,23.1C29.57,23.101,29.451,22.977,29.425,22.825z M28.12,22.845l-0.668-4.588
				c-0.022-0.157,0.06-0.284,0.186-0.288l0.487-0.004c0.124-0.001,0.246,0.12,0.268,0.275l0.668,4.587
				c0.02,0.156-0.063,0.283-0.188,0.286L28.39,23.12C28.26,23.121,28.141,22.997,28.12,22.845z M26.331,17.99l0.483-0.006
				c0.122,0,0.249,0.123,0.268,0.278l0.668,4.586c0.025,0.155-0.059,0.283-0.188,0.285L27.08,23.14
				c-0.122,0.002-0.242-0.12-0.268-0.275l-0.667-4.587C26.124,18.121,26.206,17.992,26.331,17.99z M119.026,30.307
				c-0.191,0.001-0.387-0.248-0.431-0.559l-0.352-2.41c-0.045-0.313,0.07-0.566,0.265-0.567c0.193-0.005,0.386,0.244,0.432,0.555
				l0.354,2.414C119.339,30.052,119.222,30.306,119.026,30.307z M36.208,26.89c0.056,3.915,3.291,7.049,7.204,6.991
				c1.896-0.029,3.667-0.794,4.988-2.154c1.318-1.36,2.029-3.157,2.003-5.052c-0.035-1.896-0.795-3.667-2.156-4.986
				c-1.363-1.322-3.155-2.034-5.053-2.004c-1.895,0.029-3.666,0.798-4.985,2.156C36.886,23.2,36.179,24.995,36.208,26.89z
				 M38.128,26.861c-0.044-2.859,2.237-5.211,5.093-5.255c2.856-0.043,5.217,2.238,5.261,5.097c0.044,2.861-2.239,5.212-5.104,5.257
				C40.521,32.004,38.172,29.721,38.128,26.861z M38.732,26.804c0.044,2.573,2.161,4.627,4.737,4.588
				c2.566-0.041,4.625-2.158,4.587-4.73c-0.039-2.574-2.156-4.626-4.729-4.586C40.751,22.115,38.698,24.233,38.732,26.804z
				 M39.956,27.421l-0.131-1.336l2.255-0.449l-0.217-2.261l1.054-0.295l1.125,2.023l2.305-0.916l0.578,0.731l-1.75,2.007
				l1.738,1.655l-0.728,0.964l-2.261-1.236l-1.214,2.098l-1.135-0.44l0.252-2.188L39.956,27.421z M42.058,26.753
				c0.012,0.741,0.616,1.33,1.359,1.319c0.737-0.012,1.328-0.619,1.318-1.359c-0.011-0.739-0.623-1.329-1.358-1.317
				C42.636,25.407,42.045,26.015,42.058,26.753z M42.518,26.75c-0.004-0.486,0.383-0.888,0.859-0.895
				c0.493-0.009,0.89,0.38,0.897,0.865c0.004,0.485-0.38,0.884-0.865,0.892C42.927,27.618,42.526,27.23,42.518,26.75z"/>
			<g>
				<path fill="#DEB12C" d="M12.57,45.857c-1.312,1.063-2.618,2.129-3.931,3.197c4.091,0.217,8.049,0.273,11.903,0.186
					c1.115-1.063,2.236-2.133,3.355-3.2C20.228,46.105,16.452,46.049,12.57,45.857z"/>
				<path fill="#DEB12C" d="M27.247,42.84c-1.112,1.068-2.233,2.135-3.349,3.199c3.569-0.175,7.035-0.439,10.404-0.792
					c0.958-1.011,1.919-2.021,2.889-3.028C33.963,42.499,30.651,42.708,27.247,42.84z"/>
				<path fill="#DEB12C" d="M20.429,39.466c-1.311,1.063-2.62,2.128-3.931,3.194c3.678,0.167,7.261,0.224,10.749,0.18
					c1.124-1.064,2.243-2.133,3.356-3.197C27.292,39.662,23.904,39.605,20.429,39.466z"/>
				<path fill="#DEB12C" d="M48.875,38.354c-2.861,0.311-5.794,0.592-8.797,0.84c-0.963,1.009-1.927,2.017-2.887,3.025
					c3.132-0.332,6.186-0.711,9.156-1.121C47.197,40.184,48.03,39.266,48.875,38.354z"/>
				<path fill="#DEB12C" d="M84.764,46.01c1.521,0.637,3.22,1.258,5.153,1.848c1.206-1.1,2.409-2.195,3.614-3.293
					c-2.078-0.471-3.951-0.974-5.652-1.482C86.842,44.059,85.797,45.034,84.764,46.01z"/>
				<path fill="#DEB12C" d="M50.328,44.643c2.817-0.632,5.547-1.227,8.191-1.767c0.676-0.722,1.354-1.442,2.033-2.159
					c-2.583,0.457-5.241,0.959-7.986,1.494C51.819,43.02,51.074,43.832,50.328,44.643z"/>
				<path fill="#DEB12C" d="M77.146,42.535c1.298,0.471,2.521,1.003,3.728,1.582c0.861-0.852,1.72-1.697,2.578-2.547
					c-1.37-0.459-2.755-0.881-4.186-1.252C78.56,41.057,77.853,41.797,77.146,42.535z"/>
				<path fill="#DEB12C" d="M31.413,48.273c3.402-0.506,6.709-1.071,9.907-1.686c0.838-0.912,1.679-1.83,2.521-2.743
					c-3.092,0.511-6.269,0.98-9.539,1.402C33.337,46.253,32.373,47.262,31.413,48.273z"/>
				<path fill="#DEB12C" d="M108.485,50c1.341-1.244,2.689-2.484,4.03-3.727c-4.118-0.1-7.811-0.284-11.101-0.553
					c-1.319,1.194-2.647,2.389-3.96,3.588C100.684,49.641,104.352,49.875,108.485,50z"/>
				<path fill="#DEB12C" d="M86.028,39.023c-0.857,0.852-1.718,1.697-2.577,2.547c1.405,0.488,2.86,1,4.428,1.511
					c1.04-0.976,2.079-1.951,3.115-2.927C89.253,39.77,87.609,39.391,86.028,39.023z"/>
				<path fill="#DEB12C" d="M100.778,37.968c-2.401-0.235-4.607-0.487-6.665-0.743c-1.036,0.979-2.072,1.952-3.119,2.931
					c1.877,0.385,3.924,0.756,6.164,1.11C98.365,40.168,99.571,39.068,100.778,37.968z"/>
				<path fill="#DEB12C" d="M76.185,37.593c-0.624,0.671-1.249,1.345-1.872,2.015c1.795,0.158,3.436,0.399,4.953,0.709
					c0.706-0.74,1.412-1.481,2.115-2.219C79.754,37.871,78.03,37.701,76.185,37.593z"/>
				<path fill="#DEB12C" d="M88.606,36.479c-1.714-0.226-3.398-0.428-5.103-0.603c-0.71,0.742-1.416,1.481-2.123,2.222
					c1.563,0.271,3.11,0.586,4.647,0.926C86.888,38.177,87.747,37.327,88.606,36.479z"/>
				<path fill="#DEB12C" d="M120.566,38.828c-4.079-0.047-7.814-0.141-11.222-0.273c-1.321,1.194-2.646,2.387-3.963,3.586
					c3.347,0.195,7.058,0.336,11.159,0.41C117.885,41.311,119.228,40.066,120.566,38.828z"/>
				<path fill="#DEB12C" d="M97.158,41.266c-1.209,1.098-2.418,2.196-3.627,3.297c2.335,0.436,4.95,0.826,7.884,1.158
					c1.324-1.193,2.647-2.389,3.967-3.58C102.355,41.889,99.625,41.594,97.158,41.266z"/>
				<path fill="#DEB12C" d="M62.586,38.557c-0.68,0.721-1.359,1.438-2.033,2.16c2.503-0.404,4.932-0.736,7.289-0.986
					c0.636-0.664,1.27-1.328,1.897-1.994C67.426,37.947,65.037,38.223,62.586,38.557z"/>
				<path fill="#DEB12C" d="M46.348,41.098c-0.83,0.916-1.669,1.83-2.506,2.747c2.993-0.538,5.901-1.088,8.725-1.635
					c0.749-0.812,1.496-1.622,2.239-2.433C52.065,40.223,49.251,40.665,46.348,41.098z"/>
				<path fill="#DEB12C" d="M64.62,36.398c-2.463,0.295-4.992,0.612-7.578,0.946c-0.744,0.813-1.491,1.622-2.236,2.433
					c2.666-0.434,5.255-0.844,7.78-1.221C63.262,37.836,63.941,37.118,64.62,36.398z"/>
				<path fill="#DEB12C" d="M67.842,39.73c-0.634,0.668-1.264,1.33-1.896,1.996c2.31-0.166,4.534-0.199,6.506-0.104
					c0.618-0.671,1.241-1.344,1.861-2.016C72.324,39.545,70.13,39.583,67.842,39.73z"/>
				<path fill="#DEB12C" d="M76.185,37.593c0.626-0.671,1.247-1.344,1.872-2.014c-2.027-0.007-4.187,0.044-6.411,0.161
					c-0.634,0.664-1.267,1.332-1.906,1.994C72.002,37.604,74.181,37.561,76.185,37.593z"/>
			</g>
		</g>
		<g>
			<g>
				<path fill="#DC2814" d="M130.644,21.204h8.348c0.2,0,0.404,0.004,0.613,0.013c0.209,0.009,0.4,0.046,0.557,0.109
					c0.165,0.063,0.302,0.168,0.41,0.313c0.113,0.146,0.164,0.346,0.164,0.601c0,0.272-0.051,0.477-0.164,0.614
					c-0.108,0.135-0.245,0.24-0.41,0.313c-0.157,0.074-0.348,0.114-0.557,0.125c-0.209,0.008-0.413,0.013-0.613,0.013h-8.348v6.956
					h9.467c0.202,0,0.409,0.005,0.614,0.014c0.207,0.01,0.408,0.046,0.586,0.108c0.18,0.064,0.334,0.165,0.439,0.301
					c0.105,0.137,0.164,0.342,0.164,0.614s-0.059,0.481-0.164,0.627c-0.107,0.146-0.247,0.25-0.427,0.313
					c-0.175,0.064-0.364,0.101-0.587,0.109c-0.217,0.01-0.424,0.014-0.626,0.014h-9.905c-0.286,0-0.53,0-0.731,0
					c-0.187,0-0.335-0.014-0.458-0.041c-0.116-0.027-0.22-0.067-0.313-0.122c-0.086-0.056-0.187-0.128-0.295-0.22
					c-0.199-0.182-0.318-0.391-0.339-0.627c-0.03-0.236-0.049-0.627-0.049-1.171V15.01c0-0.471,0.015-0.836,0.029-1.091
					c0.021-0.253,0.13-0.481,0.333-0.681c0.176-0.2,0.382-0.317,0.612-0.354c0.221-0.037,0.628-0.055,1.209-0.055h9.525
					c0.201,0,0.407,0.005,0.615,0.014c0.208,0.01,0.406,0.046,0.585,0.11c0.18,0.063,0.322,0.162,0.439,0.299
					c0.107,0.136,0.156,0.34,0.156,0.613c0,0.274-0.049,0.484-0.156,0.628c-0.117,0.146-0.258,0.25-0.428,0.313
					c-0.174,0.064-0.371,0.1-0.586,0.108c-0.215,0.01-0.424,0.016-0.625,0.016h-9.086v6.274H130.644z"/>
				<path fill="#DC2814" d="M157.134,29.034c-0.31,0.727-0.759,1.363-1.364,1.907c-0.597,0.547-1.345,0.979-2.252,1.297
					c-0.896,0.318-1.941,0.479-3.119,0.479c-0.477,0-0.957-0.027-1.443-0.083c-0.498-0.054-0.984-0.155-1.48-0.299
					c-0.49-0.146-0.963-0.342-1.416-0.587c-0.451-0.245-0.86-0.559-1.229-0.941c-0.546-0.563-0.978-1.205-1.274-1.923
					c-0.318-0.718-0.471-1.368-0.471-1.95c0-0.292,0.107-0.551,0.333-0.779c0.214-0.226,0.485-0.341,0.812-0.341
					c0.365,0,0.627,0.128,0.777,0.383c0.16,0.254,0.35,0.699,0.585,1.335c0.082,0.218,0.193,0.509,0.361,0.874
					c0.166,0.363,0.416,0.719,0.76,1.063c0.345,0.345,0.798,0.642,1.366,0.887c0.561,0.246,1.285,0.369,2.152,0.369
					c0.605,0,1.192-0.078,1.773-0.231c0.582-0.154,1.1-0.388,1.553-0.696c0.461-0.309,0.822-0.69,1.11-1.146
					c0.278-0.453,0.419-0.981,0.419-1.581c0-0.638-0.141-1.16-0.419-1.57c-0.288-0.409-0.633-0.741-1.043-0.995
					c-0.408-0.254-0.834-0.446-1.276-0.573c-0.447-0.127-0.846-0.227-1.189-0.299c-0.904-0.201-1.655-0.374-2.251-0.52
					c-0.591-0.145-1.097-0.286-1.515-0.422c-0.416-0.137-0.777-0.282-1.08-0.437c-0.293-0.154-0.593-0.349-0.879-0.585
					c-0.164-0.126-0.361-0.301-0.574-0.519c-0.224-0.218-0.416-0.486-0.604-0.805c-0.18-0.316-0.337-0.682-0.458-1.091
					c-0.132-0.409-0.196-0.877-0.196-1.405c0-0.89,0.18-1.672,0.547-2.345s0.851-1.232,1.463-1.678
					c0.609-0.445,1.313-0.778,2.123-0.997c0.813-0.217,1.649-0.328,2.526-0.328c0.511,0,1.038,0.042,1.599,0.124
					c0.553,0.081,1.1,0.223,1.629,0.422c0.537,0.2,1.046,0.483,1.521,0.847c0.476,0.364,0.868,0.827,1.198,1.391
					c0.18,0.309,0.334,0.646,0.447,1.009c0.117,0.365,0.177,0.7,0.177,1.01c0,0.292-0.104,0.578-0.312,0.86
					c-0.209,0.282-0.5,0.422-0.858,0.422c-0.415,0-0.711-0.14-0.877-0.422c-0.157-0.282-0.293-0.576-0.409-0.886
					c-0.145-0.4-0.292-0.754-0.458-1.063c-0.168-0.31-0.462-0.62-0.878-0.929c-0.344-0.254-0.766-0.45-1.268-0.586
					c-0.494-0.137-1.031-0.205-1.588-0.205c-0.643,0-1.213,0.086-1.709,0.259c-0.504,0.172-0.934,0.401-1.285,0.682
					c-0.352,0.284-0.621,0.61-0.801,0.983c-0.188,0.372-0.272,0.758-0.272,1.158c0,0.583,0.128,1.061,0.409,1.433
					c0.266,0.374,0.615,0.683,1.033,0.928c0.416,0.246,0.889,0.441,1.402,0.586c0.518,0.146,1.018,0.273,1.482,0.382
					c0.807,0.201,1.488,0.377,2.05,0.532c0.567,0.154,1.052,0.309,1.46,0.463c0.408,0.155,0.759,0.314,1.055,0.477
					c0.285,0.165,0.559,0.338,0.818,0.52c0.287,0.218,0.549,0.486,0.773,0.804c0.229,0.319,0.418,0.652,0.563,0.996
					c0.143,0.346,0.251,0.696,0.322,1.051c0.08,0.354,0.117,0.678,0.117,0.968C157.602,27.533,157.441,28.306,157.134,29.034z"/>
				<path fill="#DC2814" d="M175.563,27.983c-0.28,0.718-0.727,1.427-1.336,2.129c-0.609,0.701-1.406,1.305-2.389,1.813
					c-0.982,0.511-2.17,0.765-3.57,0.765c-0.545,0-1.109-0.039-1.677-0.109c-0.575-0.073-1.146-0.196-1.705-0.369
					c-0.569-0.172-1.116-0.409-1.638-0.709c-0.533-0.3-1.014-0.678-1.446-1.132c-0.897-0.946-1.567-2.11-2.036-3.492
					c-0.466-1.381-0.691-2.81-0.691-4.283c0-1.528,0.218-2.914,0.664-4.161c0.445-1.246,1.068-2.304,1.871-3.178
					c0.799-0.873,1.752-1.55,2.867-2.031c1.105-0.482,2.328-0.725,3.655-0.725c0.942,0,1.793,0.119,2.548,0.355
					c0.754,0.237,1.422,0.532,1.995,0.886c0.568,0.356,1.056,0.755,1.454,1.2c0.402,0.447,0.725,0.874,0.973,1.283
					c0.246,0.409,0.424,0.783,0.547,1.118c0.115,0.338,0.177,0.588,0.177,0.751c0,0.255-0.091,0.509-0.265,0.763
					c-0.172,0.255-0.44,0.383-0.801,0.383c-0.199,0-0.376-0.049-0.533-0.149c-0.156-0.1-0.303-0.229-0.438-0.383
					c-0.136-0.154-0.254-0.327-0.361-0.518c-0.116-0.191-0.216-0.378-0.303-0.56c-0.258-0.472-0.567-0.904-0.926-1.295
					c-0.367-0.39-0.757-0.713-1.179-0.968c-0.287-0.181-0.658-0.356-1.104-0.519c-0.444-0.164-1.004-0.246-1.677-0.246
					c-0.69,0-1.422,0.123-2.184,0.369c-0.761,0.245-1.47,0.673-2.115,1.283c-0.646,0.609-1.182,1.437-1.608,2.482
					c-0.429,1.046-0.642,2.37-0.642,3.969c0,1.601,0.207,2.911,0.633,3.93c0.414,1.019,0.935,1.823,1.563,2.414
					c0.629,0.592,1.315,0.996,2.063,1.214c0.747,0.218,1.436,0.328,2.073,0.328c1.414,0,2.598-0.373,3.541-1.119
					c0.949-0.746,1.658-1.8,2.129-3.165c0.093-0.254,0.219-0.505,0.367-0.75c0.157-0.246,0.428-0.368,0.811-0.368
					c0.25,0,0.505,0.091,0.75,0.273c0.242,0.181,0.37,0.454,0.37,0.818C175.99,26.696,175.843,27.265,175.563,27.983z"/>
				<path fill="#DC2814" d="M180.923,25.051c0,0.417,0.029,0.941,0.08,1.568c0.058,0.627,0.242,1.237,0.563,1.827
					c0.315,0.591,0.826,1.096,1.524,1.515c0.702,0.418,1.695,0.628,2.99,0.628c1.144,0,2.053-0.183,2.729-0.546
					c0.668-0.365,1.18-0.823,1.523-1.378c0.346-0.555,0.568-1.155,0.67-1.8c0.102-0.646,0.148-1.243,0.148-1.789V14.683
					c0-0.473,0.016-0.841,0.048-1.104c0.021-0.264,0.123-0.486,0.309-0.669c0.089-0.09,0.218-0.181,0.384-0.273
					c0.164-0.09,0.353-0.137,0.572-0.137c0.381,0,0.697,0.137,0.952,0.41c0.183,0.183,0.288,0.405,0.317,0.669
					c0.027,0.264,0.039,0.631,0.039,1.104v10.149c0,1.001-0.107,1.969-0.328,2.906c-0.219,0.937-0.604,1.773-1.159,2.51
					c-0.556,0.736-1.317,1.327-2.292,1.773c-0.973,0.443-2.21,0.668-3.725,0.668c-1.312,0-2.461-0.138-3.451-0.409
					c-0.992-0.272-1.818-0.72-2.479-1.337c-0.668-0.618-1.167-1.427-1.516-2.428c-0.349-0.999-0.521-2.218-0.521-3.655V14.683
					c0-0.473,0.019-0.841,0.046-1.104c0.021-0.264,0.127-0.486,0.313-0.669c0.086-0.09,0.215-0.181,0.379-0.273
					c0.166-0.09,0.354-0.137,0.576-0.137c0.38,0,0.696,0.137,0.954,0.41c0.181,0.183,0.283,0.405,0.314,0.669
					c0.026,0.264,0.037,0.631,0.037,1.104L180.923,25.051L180.923,25.051z"/>
				<path fill="#DC2814" d="M218.136,21.204h8.347c0.201,0,0.406,0.004,0.615,0.013c0.209,0.009,0.395,0.046,0.557,0.109
					c0.164,0.063,0.302,0.168,0.41,0.313c0.108,0.146,0.164,0.346,0.164,0.601c0,0.272-0.056,0.477-0.164,0.614
					c-0.108,0.135-0.246,0.24-0.41,0.313c-0.162,0.074-0.348,0.114-0.557,0.125c-0.209,0.008-0.414,0.013-0.615,0.013h-8.347v6.956
					h9.468c0.198,0,0.406,0.005,0.613,0.014c0.209,0.01,0.402,0.046,0.588,0.108c0.18,0.064,0.324,0.165,0.438,0.301
					c0.107,0.137,0.16,0.342,0.16,0.614s-0.053,0.481-0.16,0.627c-0.112,0.146-0.254,0.25-0.428,0.313
					c-0.172,0.064-0.367,0.101-0.586,0.109c-0.215,0.01-0.427,0.014-0.625,0.014h-9.904c-0.292,0-0.537,0-0.736,0
					c-0.182,0-0.33-0.014-0.451-0.041c-0.115-0.027-0.22-0.067-0.313-0.122c-0.094-0.056-0.19-0.128-0.301-0.22
					c-0.2-0.182-0.313-0.391-0.342-0.627c-0.029-0.236-0.041-0.627-0.041-1.171V15.01c0-0.471,0.01-0.836,0.028-1.091
					c0.017-0.253,0.128-0.481,0.325-0.681c0.186-0.2,0.389-0.317,0.613-0.354c0.229-0.037,0.634-0.055,1.216-0.055h9.521
					c0.2,0,0.405,0.005,0.613,0.014c0.213,0.01,0.406,0.046,0.59,0.11c0.18,0.063,0.323,0.162,0.436,0.299
					c0.109,0.136,0.164,0.34,0.164,0.613c0,0.274-0.055,0.484-0.164,0.628c-0.111,0.146-0.252,0.25-0.426,0.313
					c-0.172,0.064-0.367,0.1-0.584,0.108c-0.219,0.01-0.429,0.016-0.629,0.016h-9.083V21.204z"/>
				<path fill="#DC2814" d="M234.068,30.507c0,0.4-0.008,0.687-0.029,0.859c-0.014,0.172-0.044,0.332-0.079,0.478
					c-0.095,0.291-0.26,0.504-0.505,0.641c-0.244,0.138-0.487,0.205-0.723,0.205c-0.256,0-0.498-0.076-0.723-0.23
					c-0.23-0.154-0.391-0.359-0.478-0.613c-0.039-0.129-0.062-0.324-0.068-0.587c-0.011-0.264-0.014-0.515-0.014-0.75V15.01
					c0-0.49,0.021-0.881,0.065-1.172c0.049-0.291,0.141-0.509,0.289-0.655c0.141-0.145,0.358-0.241,0.649-0.286
					c0.289-0.045,0.679-0.069,1.17-0.069h6.222c0.073,0,0.254,0.005,0.545,0.014c0.289,0.01,0.619,0.037,0.992,0.082
					c0.374,0.045,0.758,0.123,1.168,0.233c0.407,0.108,0.774,0.262,1.1,0.463c0.781,0.474,1.393,1.1,1.836,1.883
					c0.445,0.782,0.666,1.664,0.666,2.646s-0.192,1.801-0.584,2.455c-0.39,0.656-0.783,1.129-1.18,1.418
					c-0.654,0.491-1.287,0.819-1.904,0.983c-0.613,0.163-1.121,0.282-1.52,0.354c0.251,0.146,0.569,0.351,0.95,0.614
					c0.383,0.264,0.75,0.633,1.112,1.104c0.201,0.256,0.42,0.55,0.668,0.887c0.244,0.337,0.4,0.56,0.474,0.669l1.765,2.974
					c0.202,0.344,0.362,0.624,0.479,0.833c0.116,0.208,0.208,0.38,0.271,0.518c0.066,0.136,0.104,0.246,0.127,0.327
					c0.017,0.083,0.021,0.179,0.021,0.287c0,0.363-0.117,0.646-0.363,0.845c-0.251,0.2-0.525,0.301-0.833,0.301
					c-0.194,0-0.37-0.028-0.516-0.083c-0.146-0.054-0.283-0.15-0.42-0.285c-0.138-0.138-0.274-0.318-0.417-0.545
					c-0.15-0.229-0.332-0.514-0.547-0.861l-1.848-2.945c-0.672-1.055-1.246-1.877-1.726-2.469c-0.479-0.591-0.923-1.027-1.33-1.31
					c-0.407-0.282-0.802-0.455-1.194-0.519c-0.39-0.063-0.818-0.095-1.287-0.095h-2.281v6.902H234.068z M234.068,14.847v6.656h4.554
					c0.31,0,0.742-0.019,1.286-0.054c0.545-0.036,1.083-0.159,1.621-0.368c0.537-0.21,1.003-0.541,1.404-0.996
					c0.399-0.455,0.604-1.109,0.604-1.964c0-1.054-0.417-1.901-1.258-2.537c-0.217-0.183-0.482-0.324-0.79-0.424
					c-0.31-0.1-0.625-0.172-0.956-0.219c-0.328-0.044-0.652-0.071-0.981-0.08c-0.327-0.01-0.61-0.014-0.845-0.014H234.068z"/>
				<path fill="#DC2814" d="M251.802,30.534c0,0.473-0.017,0.843-0.042,1.104c-0.027,0.264-0.131,0.479-0.314,0.642
					c-0.088,0.091-0.217,0.182-0.383,0.271c-0.164,0.093-0.351,0.138-0.572,0.138c-0.159,0-0.329-0.032-0.504-0.095
					c-0.17-0.064-0.324-0.159-0.452-0.288c-0.183-0.182-0.285-0.404-0.313-0.668c-0.027-0.263-0.041-0.632-0.041-1.104V14.656
					c0-0.473,0.014-0.842,0.041-1.105c0.027-0.262,0.131-0.477,0.313-0.641c0.092-0.09,0.217-0.181,0.37-0.273
					c0.158-0.09,0.35-0.137,0.586-0.137c0.164,0,0.333,0.032,0.507,0.096c0.171,0.064,0.323,0.168,0.448,0.313
					c0.185,0.164,0.287,0.383,0.314,0.655c0.025,0.273,0.042,0.638,0.042,1.092V30.534z"/>
				<path fill="#DC2814" d="M258.073,26.714l-1.689,4.364c-0.2,0.527-0.39,0.929-0.562,1.201c-0.174,0.271-0.486,0.408-0.938,0.408
					c-0.366,0-0.668-0.123-0.901-0.367c-0.237-0.245-0.356-0.506-0.356-0.778c0-0.199,0.032-0.399,0.099-0.601
					c0.063-0.2,0.162-0.455,0.284-0.762l6.191-15.361c0.149-0.38,0.286-0.718,0.409-1.008c0.127-0.291,0.269-0.532,0.428-0.722
					c0.15-0.191,0.336-0.337,0.545-0.438c0.208-0.1,0.468-0.15,0.773-0.15c0.256,0,0.502,0.051,0.738,0.15
					c0.235,0.101,0.43,0.232,0.574,0.396c0.145,0.147,0.291,0.396,0.446,0.75c0.153,0.355,0.299,0.686,0.423,0.996l6.413,15.277
					c0.146,0.345,0.249,0.619,0.312,0.82c0.066,0.199,0.098,0.4,0.098,0.6c0,0.255-0.117,0.519-0.35,0.792
					c-0.24,0.271-0.563,0.409-0.957,0.409c-0.459,0-0.771-0.142-0.943-0.422c-0.174-0.283-0.367-0.697-0.586-1.242l-1.744-4.311
					L258.073,26.714L258.073,26.714z M265.986,24.614l-3.653-9.139l-3.521,9.139H265.986z"/>
				<path fill="#DC2814" d="M199.141,32.361c-0.523,0-0.936-0.026-1.236-0.081c-0.301-0.056-0.525-0.173-0.67-0.354
					c-0.144-0.182-0.228-0.437-0.254-0.764c-0.029-0.328-0.043-0.764-0.043-1.311V15.01c0-0.49,0.021-0.881,0.07-1.172
					c0.047-0.291,0.146-0.509,0.297-0.655c0.156-0.145,0.377-0.241,0.668-0.286c0.289-0.045,0.682-0.069,1.168-0.069h4.73
					c0.527,0,1.084,0.019,1.672,0.055c0.59,0.037,1.188,0.137,1.795,0.3c0.607,0.164,1.208,0.423,1.811,0.778
					c0.595,0.354,1.16,0.85,1.682,1.486c0.818,0.98,1.378,2.091,1.688,3.328c0.308,1.237,0.465,2.501,0.465,3.792
					c0,0.638-0.049,1.338-0.137,2.101c-0.094,0.764-0.262,1.524-0.507,2.278c-0.241,0.755-0.587,1.482-1.03,2.182
					c-0.444,0.7-1.029,1.306-1.752,1.813c-0.474,0.328-0.957,0.588-1.459,0.779c-0.496,0.191-0.994,0.336-1.494,0.437
					c-0.498,0.1-0.978,0.159-1.439,0.178c-0.46,0.019-0.885,0.026-1.266,0.026H199.141z M199.557,30.261h4.008
					c0.625,0,1.181-0.027,1.683-0.081c0.499-0.056,0.954-0.155,1.36-0.301c0.41-0.146,0.795-0.342,1.147-0.587
					c0.354-0.245,0.695-0.568,1.022-0.967c0.4-0.473,0.707-1.006,0.914-1.597c0.209-0.59,0.363-1.164,0.463-1.719
					c0.101-0.555,0.16-1.046,0.177-1.474c0.021-0.426,0.028-0.704,0.028-0.833c0-1.309-0.159-2.464-0.479-3.464
					c-0.316-1-0.686-1.773-1.104-2.319c-0.293-0.382-0.6-0.7-0.914-0.955c-0.317-0.254-0.687-0.459-1.104-0.614
					c-0.417-0.154-0.896-0.263-1.435-0.327c-0.535-0.064-1.167-0.094-1.896-0.094h-3.873v15.332H199.557z"/>
			</g>
			<g>
				<path fill="#FFFFFF" d="M128.686,43.957l1.307-0.115c0.062,0.525,0.205,0.955,0.43,1.288c0.225,0.337,0.574,0.609,1.051,0.815
					c0.478,0.207,1.016,0.312,1.608,0.312c0.533,0,0.998-0.077,1.4-0.237c0.406-0.155,0.707-0.371,0.909-0.644
					c0.199-0.272,0.291-0.574,0.291-0.897c0-0.328-0.089-0.617-0.285-0.86c-0.191-0.247-0.505-0.453-0.937-0.618
					c-0.288-0.111-0.908-0.281-1.869-0.511c-0.96-0.232-1.638-0.451-2.02-0.655c-0.504-0.262-0.877-0.586-1.122-0.977
					c-0.243-0.385-0.37-0.821-0.37-1.303c0-0.529,0.155-1.022,0.45-1.482c0.301-0.459,0.739-0.807,1.318-1.047
					c0.578-0.237,1.22-0.356,1.919-0.356c0.78,0,1.465,0.125,2.055,0.375c0.598,0.251,1.051,0.618,1.367,1.104
					c0.327,0.485,0.499,1.035,0.516,1.649l-1.33,0.101c-0.07-0.662-0.313-1.162-0.724-1.5c-0.412-0.336-1.021-0.506-1.821-0.506
					c-0.844,0-1.454,0.152-1.838,0.461c-0.382,0.307-0.576,0.676-0.576,1.111c0,0.376,0.136,0.686,0.407,0.928
					c0.269,0.242,0.967,0.492,2.09,0.748c1.127,0.254,1.902,0.478,2.319,0.666c0.611,0.28,1.06,0.637,1.355,1.067
					c0.286,0.433,0.438,0.931,0.438,1.49c0,0.559-0.163,1.084-0.479,1.577c-0.326,0.492-0.78,0.875-1.383,1.149
					c-0.593,0.273-1.27,0.411-2.018,0.411c-0.947,0-1.743-0.138-2.383-0.414c-0.637-0.275-1.144-0.693-1.51-1.247
					C128.895,45.284,128.699,44.658,128.686,43.957z"/>
				<path fill="#FFFFFF" d="M137.542,43.527c0-1.406,0.387-2.447,1.167-3.123c0.653-0.563,1.447-0.842,2.391-0.842
					c1.039,0,1.893,0.342,2.56,1.022c0.657,0.685,0.993,1.63,0.993,2.834c0,0.976-0.153,1.744-0.442,2.304
					c-0.296,0.561-0.719,0.994-1.283,1.305c-0.558,0.312-1.169,0.466-1.827,0.466c-1.062,0-1.919-0.341-2.582-1.022
					C137.865,45.791,137.542,44.811,137.542,43.527z M138.858,43.527c0,0.971,0.219,1.699,0.64,2.182
					c0.42,0.484,0.956,0.727,1.602,0.727c0.635,0,1.168-0.242,1.59-0.729c0.429-0.484,0.638-1.229,0.638-2.223
					c0-0.939-0.21-1.648-0.642-2.133c-0.422-0.483-0.957-0.726-1.586-0.726c-0.646,0-1.182,0.241-1.602,0.722
					C139.078,41.829,138.858,42.557,138.858,43.527z"/>
				<path fill="#FFFFFF" d="M145.4,47.323V36.848h1.281v10.476H145.4z"/>
				<path fill="#FFFFFF" d="M152.921,47.323v-1.117c-0.596,0.86-1.396,1.288-2.414,1.288c-0.446,0-0.862-0.085-1.255-0.258
					c-0.387-0.17-0.671-0.387-0.863-0.646c-0.184-0.259-0.315-0.579-0.391-0.954c-0.057-0.253-0.084-0.653-0.084-1.2v-4.701h1.288
					v4.207c0,0.672,0.03,1.125,0.075,1.356c0.088,0.339,0.259,0.604,0.515,0.798c0.267,0.192,0.587,0.289,0.978,0.289
					c0.383,0,0.75-0.1,1.082-0.298c0.338-0.196,0.576-0.466,0.727-0.807c0.138-0.341,0.208-0.835,0.208-1.483v-4.064h1.28v7.59
					L152.921,47.323L152.921,47.323z"/>
				<path fill="#FFFFFF" d="M160.307,44.542l1.264,0.165c-0.137,0.872-0.496,1.552-1.061,2.046
					c-0.572,0.493-1.268,0.741-2.103,0.741c-1.036,0-1.867-0.339-2.503-1.02c-0.627-0.68-0.947-1.652-0.947-2.918
					c0-0.82,0.136-1.537,0.408-2.151c0.27-0.615,0.685-1.077,1.242-1.384c0.556-0.307,1.154-0.459,1.806-0.459
					c0.832,0,1.5,0.209,2.03,0.625c0.521,0.418,0.857,1.008,1.002,1.775l-1.246,0.192c-0.122-0.511-0.332-0.892-0.637-1.149
					c-0.304-0.257-0.662-0.386-1.096-0.386c-0.648,0-1.171,0.231-1.576,0.696c-0.408,0.465-0.611,1.199-0.611,2.205
					c0,1.021,0.199,1.76,0.586,2.223c0.395,0.462,0.904,0.693,1.529,0.693c0.508,0,0.926-0.154,1.267-0.463
					C160.001,45.66,160.213,45.186,160.307,44.542z"/>
				<path fill="#FFFFFF" d="M161.948,38.325v-1.479h1.28v1.479H161.948z M161.948,47.323v-7.589h1.28v7.589H161.948z"/>
				<path fill="#FFFFFF" d="M163.977,43.527c0-1.406,0.396-2.447,1.176-3.123c0.652-0.563,1.447-0.842,2.382-0.842
					c1.048,0,1.899,0.342,2.562,1.022c0.662,0.685,0.99,1.63,0.99,2.834c0,0.976-0.145,1.744-0.439,2.304
					c-0.287,0.561-0.719,0.994-1.276,1.305c-0.556,0.312-1.167,0.466-1.835,0.466c-1.063,0-1.92-0.341-2.573-1.022
					C164.309,45.791,163.977,44.811,163.977,43.527z M165.3,43.527c0,0.971,0.212,1.699,0.634,2.182
					c0.428,0.484,0.957,0.727,1.601,0.727c0.641,0,1.173-0.242,1.596-0.729c0.422-0.484,0.642-1.229,0.642-2.223
					c0-0.939-0.219-1.648-0.643-2.133c-0.43-0.483-0.957-0.726-1.595-0.726c-0.644,0-1.173,0.241-1.601,0.722
					C165.512,41.829,165.3,42.557,165.3,43.527z"/>
				<path fill="#FFFFFF" d="M171.863,47.323v-7.589h1.16v1.078c0.554-0.834,1.363-1.25,2.41-1.25c0.461,0,0.879,0.082,1.26,0.246
					c0.386,0.164,0.674,0.379,0.863,0.647c0.189,0.265,0.323,0.583,0.4,0.949c0.051,0.237,0.07,0.655,0.07,1.251v4.667h-1.283
					v-4.619c0-0.521-0.055-0.914-0.153-1.173c-0.101-0.26-0.278-0.469-0.528-0.623c-0.258-0.155-0.553-0.231-0.898-0.231
					c-0.551,0-1.018,0.173-1.419,0.521c-0.399,0.349-0.593,1.007-0.593,1.979v4.146L171.863,47.323L171.863,47.323z"/>
				<path fill="#FFFFFF" d="M184.467,44.878l1.329,0.163c-0.212,0.777-0.601,1.38-1.168,1.809c-0.563,0.428-1.287,0.644-2.17,0.644
					c-1.11,0-1.988-0.341-2.638-1.025c-0.651-0.684-0.98-1.642-0.98-2.878c0-1.275,0.333-2.266,0.987-2.972
					c0.657-0.705,1.51-1.056,2.563-1.056c1.01,0,1.842,0.345,2.486,1.035c0.637,0.69,0.962,1.66,0.962,2.916
					c0,0.075-0.003,0.19-0.01,0.344h-5.658c0.046,0.834,0.283,1.471,0.709,1.914c0.42,0.443,0.955,0.666,1.583,0.666
					c0.475,0,0.878-0.127,1.207-0.373C184.005,45.816,184.271,45.42,184.467,44.878z M180.241,42.799h4.237
					c-0.058-0.638-0.218-1.115-0.482-1.436c-0.41-0.496-0.944-0.744-1.598-0.744c-0.59,0-1.088,0.197-1.486,0.593
					C180.51,41.607,180.282,42.136,180.241,42.799z"/>
				<path fill="#FFFFFF" d="M186.161,45.057l1.272-0.201c0.074,0.511,0.271,0.9,0.598,1.172c0.326,0.272,0.783,0.408,1.367,0.408
					c0.592,0,1.027-0.121,1.313-0.36c0.289-0.24,0.431-0.524,0.431-0.849c0-0.291-0.127-0.518-0.379-0.686
					c-0.175-0.115-0.615-0.259-1.315-0.438c-0.94-0.237-1.593-0.443-1.962-0.617c-0.364-0.174-0.641-0.414-0.826-0.721
					c-0.189-0.308-0.279-0.647-0.279-1.02c0-0.337,0.076-0.651,0.229-0.939c0.156-0.287,0.365-0.526,0.635-0.718
					c0.199-0.147,0.472-0.272,0.818-0.376c0.345-0.104,0.717-0.152,1.108-0.152c0.599,0,1.12,0.086,1.569,0.258
					s0.781,0.402,0.996,0.695c0.217,0.293,0.361,0.685,0.441,1.176l-1.255,0.172c-0.057-0.392-0.226-0.697-0.498-0.914
					c-0.272-0.219-0.659-0.33-1.161-0.33c-0.59,0-1.014,0.098-1.265,0.294c-0.25,0.194-0.379,0.423-0.379,0.687
					c0,0.166,0.051,0.315,0.157,0.448c0.106,0.138,0.269,0.253,0.492,0.343c0.129,0.049,0.51,0.157,1.135,0.328
					c0.914,0.245,1.545,0.443,1.906,0.598c0.357,0.154,0.643,0.379,0.849,0.677c0.204,0.294,0.307,0.659,0.307,1.1
					c0,0.429-0.126,0.833-0.373,1.211c-0.255,0.378-0.612,0.671-1.085,0.878c-0.473,0.211-1.003,0.313-1.604,0.313
					c-0.984,0-1.736-0.204-2.252-0.614C186.635,46.47,186.305,45.861,186.161,45.057z"/>
				<path fill="#FFFFFF" d="M194.805,47.323l4.023-10.476h1.49l4.287,10.476h-1.576l-1.225-3.173h-4.378l-1.151,3.173H194.805z
					 M197.822,43.021h3.554l-1.095-2.902c-0.329-0.88-0.58-1.604-0.741-2.172c-0.133,0.671-0.323,1.338-0.563,2.001L197.822,43.021z
					"/>
				<path fill="#FFFFFF" d="M209.911,47.323v-9.24h-3.452v-1.235h8.305v1.235h-3.466v9.24H209.911z"/>
				<path fill="#FFFFFF" d="M219.718,47.323v-1.117c-0.588,0.86-1.394,1.288-2.407,1.288c-0.449,0-0.867-0.085-1.254-0.258
					c-0.391-0.17-0.677-0.387-0.863-0.646c-0.188-0.259-0.322-0.579-0.398-0.954c-0.053-0.253-0.078-0.653-0.078-1.2v-4.701h1.286
					v4.207c0,0.672,0.024,1.125,0.081,1.356c0.079,0.339,0.25,0.604,0.514,0.798c0.262,0.192,0.586,0.289,0.971,0.289
					s0.746-0.1,1.086-0.298c0.34-0.196,0.58-0.466,0.719-0.807c0.141-0.341,0.21-0.835,0.21-1.483v-4.064h1.287v7.59L219.718,47.323
					L219.718,47.323z"/>
				<path fill="#FFFFFF" d="M223.689,47.323l4.023-10.476h1.496l4.285,10.476h-1.578l-1.223-3.173h-4.379l-1.15,3.173H223.689z
					 M226.714,43.021h3.554l-1.095-2.902c-0.334-0.88-0.581-1.604-0.743-2.172c-0.136,0.671-0.322,1.338-0.566,2.001L226.714,43.021
					z"/>
				<path fill="#FFFFFF" d="M233.678,47.323V36.848h1.287v10.476H233.678z"/>
				<path fill="#FFFFFF" d="M241.18,44.542l1.266,0.165c-0.139,0.872-0.492,1.552-1.062,2.046c-0.571,0.493-1.268,0.741-2.101,0.741
					c-1.037,0-1.872-0.339-2.504-1.02c-0.629-0.68-0.944-1.652-0.944-2.918c0-0.82,0.134-1.537,0.407-2.151
					c0.269-0.615,0.684-1.077,1.242-1.384c0.551-0.307,1.158-0.459,1.809-0.459c0.826,0,1.5,0.209,2.023,0.625
					c0.522,0.418,0.859,1.008,1.006,1.775l-1.247,0.192c-0.122-0.511-0.334-0.892-0.636-1.149c-0.304-0.257-0.666-0.386-1.098-0.386
					c-0.648,0-1.172,0.231-1.58,0.696c-0.404,0.465-0.605,1.199-0.605,2.205c0,1.021,0.195,1.76,0.586,2.223
					c0.394,0.462,0.9,0.693,1.529,0.693c0.506,0,0.926-0.154,1.265-0.463C240.873,45.66,241.087,45.186,241.18,44.542z"/>
				<path fill="#FFFFFF" d="M247.766,46.386c-0.477,0.406-0.938,0.69-1.38,0.857c-0.438,0.167-0.909,0.25-1.413,0.25
					c-0.837,0-1.477-0.203-1.922-0.611c-0.451-0.409-0.675-0.927-0.675-1.563c0-0.369,0.084-0.709,0.253-1.017
					s0.393-0.556,0.667-0.739c0.274-0.186,0.583-0.324,0.925-0.422c0.252-0.066,0.633-0.132,1.143-0.191
					c1.041-0.125,1.803-0.271,2.293-0.443c0.009-0.178,0.01-0.289,0.01-0.337c0-0.524-0.124-0.894-0.367-1.108
					c-0.328-0.291-0.816-0.435-1.466-0.435c-0.604,0-1.052,0.106-1.338,0.315c-0.287,0.215-0.503,0.59-0.642,1.127l-1.256-0.172
					c0.116-0.537,0.301-0.974,0.563-1.304c0.265-0.331,0.642-0.585,1.137-0.765c0.495-0.178,1.068-0.268,1.722-0.268
					c0.648,0,1.174,0.076,1.582,0.229c0.405,0.152,0.699,0.344,0.892,0.576c0.19,0.229,0.321,0.521,0.401,0.875
					c0.043,0.219,0.063,0.615,0.063,1.185v1.716c0,1.193,0.025,1.952,0.084,2.269c0.053,0.317,0.164,0.622,0.32,0.913h-1.342
					C247.886,47.055,247.802,46.744,247.766,46.386z M247.654,43.514c-0.463,0.19-1.166,0.352-2.1,0.484
					c-0.527,0.078-0.898,0.163-1.121,0.257c-0.217,0.097-0.387,0.236-0.51,0.419c-0.113,0.182-0.177,0.387-0.177,0.609
					c0,0.343,0.131,0.629,0.389,0.859c0.259,0.228,0.64,0.342,1.144,0.342c0.492,0,0.934-0.109,1.318-0.324
					c0.391-0.219,0.67-0.514,0.853-0.891c0.137-0.291,0.204-0.722,0.204-1.287V43.514z"/>
				<path fill="#FFFFFF" d="M250.217,47.323v-7.589h1.158v1.078c0.561-0.834,1.364-1.25,2.417-1.25c0.455,0,0.88,0.082,1.263,0.246
					c0.381,0.164,0.668,0.379,0.858,0.647c0.192,0.265,0.323,0.583,0.401,0.949c0.045,0.237,0.07,0.655,0.07,1.251v4.667h-1.287
					v-4.619c0-0.521-0.048-0.914-0.146-1.173c-0.102-0.26-0.279-0.469-0.535-0.623c-0.252-0.155-0.555-0.231-0.896-0.231
					c-0.547,0-1.021,0.173-1.418,0.521c-0.396,0.349-0.597,1.007-0.597,1.979v4.146L250.217,47.323L250.217,47.323z"/>
				<path fill="#FFFFFF" d="M262.578,44.542l1.264,0.165c-0.138,0.872-0.488,1.552-1.061,2.046c-0.57,0.493-1.268,0.741-2.094,0.741
					c-1.045,0-1.875-0.339-2.51-1.02c-0.63-0.68-0.943-1.652-0.943-2.918c0-0.82,0.138-1.537,0.406-2.151
					c0.269-0.615,0.685-1.077,1.24-1.384c0.553-0.307,1.159-0.459,1.811-0.459c0.824,0,1.5,0.209,2.021,0.625
					c0.522,0.418,0.858,1.008,1.006,1.775l-1.247,0.192c-0.121-0.511-0.332-0.892-0.635-1.149c-0.302-0.257-0.665-0.386-1.098-0.386
					c-0.647,0-1.172,0.231-1.578,0.696c-0.404,0.465-0.605,1.199-0.605,2.205c0,1.021,0.194,1.76,0.584,2.223
					c0.395,0.462,0.903,0.693,1.528,0.693c0.507,0,0.927-0.154,1.267-0.463C262.271,45.66,262.486,45.186,262.578,44.542z"/>
				<path fill="#FFFFFF" d="M269.407,44.878l1.329,0.163c-0.211,0.777-0.601,1.38-1.162,1.809c-0.57,0.428-1.292,0.644-2.176,0.644
					c-1.104,0-1.989-0.341-2.64-1.025c-0.649-0.684-0.978-1.642-0.978-2.878c0-1.275,0.333-2.266,0.986-2.972
					c0.656-0.705,1.512-1.056,2.561-1.056c1.018,0,1.843,0.345,2.488,1.035c0.639,0.69,0.963,1.66,0.963,2.916
					c0,0.075-0.002,0.19-0.006,0.344h-5.662c0.048,0.834,0.283,1.471,0.709,1.914c0.422,0.443,0.953,0.666,1.584,0.666
					c0.474,0,0.878-0.127,1.213-0.373C268.943,45.816,269.21,45.42,269.407,44.878z M265.182,42.799h4.236
					c-0.057-0.638-0.216-1.115-0.484-1.436c-0.41-0.496-0.941-0.744-1.594-0.744c-0.591,0-1.088,0.197-1.488,0.593
					C265.447,41.607,265.225,42.136,265.182,42.799z"/>
			</g>
		</g>
	</g>
</g>
</svg>
