<?xml version="1.0" encoding="utf-8"?>
<!-- Generator: Adobe Illustrator 16.0.0, SVG Export Plug-In . SVG Version: 6.00 Build 0)  -->
<!DOCTYPE svg PUBLIC "-//W3C//DTD SVG 1.1//EN" "http://www.w3.org/Graphics/SVG/1.1/DTD/svg11.dtd">
<svg version="1.1" id="Layer_1" xmlns="http://www.w3.org/2000/svg" xmlns:xlink="http://www.w3.org/1999/xlink" x="0px" y="0px"
	 width="270px" height="100px" viewBox="0 0 270 100" enable-background="new 0 0 270 100" xml:space="preserve">
<g>
	<path fill="#C8961E" d="M203.584,31.569c-3.096,3.198-4.772,7.412-4.708,11.869c0.147,9.199,7.743,16.567,16.941,16.423
		c4.452-0.068,8.613-1.861,11.715-5.066c3.095-3.195,4.771-7.412,4.711-11.869c-0.08-4.456-1.868-8.617-5.065-11.715
		c-3.202-3.11-7.419-4.773-11.882-4.714C210.85,26.566,206.688,28.369,203.584,31.569z M203.397,43.365
		c-0.102-6.716,5.256-12.242,11.974-12.347c6.717-0.104,12.251,5.254,12.353,11.975c0.104,6.719-5.258,12.252-11.982,12.36
		C209.024,55.45,203.496,50.084,203.397,43.365z M204.816,43.241c0.096,6.041,5.084,10.875,11.121,10.782
		c6.05-0.096,10.887-5.077,10.79-11.121c-0.092-6.045-5.07-10.874-11.119-10.781C209.569,32.209,204.729,37.186,204.816,43.241z
		 M207.384,41.542l5.464-0.999l-0.675-5.366l2.47-0.705l2.644,4.77l5.431-2.152l1.356,1.712l-3.826,4.554l3.791,4.058l-1.704,2.26
		l-5.153-2.898l-3.011,4.922l-2.667-1.025l0.578-5.149l-4.393-0.841L207.384,41.542z M212.623,43.117
		c0.039,1.734,1.46,3.124,3.199,3.099c1.739-0.029,3.121-1.46,3.103-3.196c-0.025-1.74-1.455-3.126-3.199-3.089
		C213.991,39.947,212.604,41.382,212.623,43.117z M213.706,43.1c-0.006-1.143,0.902-2.078,2.035-2.095
		c1.146-0.014,2.085,0.9,2.101,2.031c0.014,1.143-0.903,2.082-2.03,2.095C214.672,45.148,213.726,44.238,213.706,43.1z
		 M42.708,47.188c1.327,2.132,19.41,7.739,26.366,6.439c0.21,0-3.053-6.811-3.115-10.921c-0.071-5.042,1.809-9.815,5.335-13.437
		c3.516-3.626,8.224-5.696,13.266-5.739c7.507-0.054,13.439,5.331,13.439,5.331c3.628,3.51,5.655,8.229,5.735,13.273
		c0.026,2.449-2.468,11.993-2.468,11.993h94.168c0,0,1.788-10.336,1.788-10.662c-0.072-4.9,1.766-9.536,5.172-13.053
		c3.417-3.513,7.991-5.491,12.877-5.568c4.901-0.078,9.541,1.759,13.049,5.178c3.524,3.407,5.494,7.986,5.575,12.88
		c0.047,3.698-0.986,7.252-2.959,10.281c9.295,0.459,18.904-0.275,28.137-0.166c1.937,0.47,4.092,0.212,6.193,0.087
		c0.496-0.184,1.43-0.231,1.222-1.033c0.011-0.885-1.015-1.17-1.386-1.833c-1.343-2.779-0.884-6.834-1.913-9.538
		c0-3.932-4.229-4.375-6.63-6.385c-11.619-6.085-23.31-11.503-36.134-13.451c-5.337-0.891-10.794-1.299-15.789-3.58
		c-1.491,0.643-3.44,0.433-5.13-0.311l-21.173-7.315c-4.488-2.116-9.191-3.612-13.854-5.228
		c-15.761-2.472-33.263-1.742-49.325,2.181c-14.287,2.406-29.31,5.729-43.094,9.429c-1.903-2.539-2.919-5.656-4.688-8.26
		c-2.312-0.613-21.006-2.498-24.598-4.537C42.47,3.166,42.708,47.188,42.708,47.188z M260.328,42.556l2.426-1.294l1.343,8.551
		l0.765,1.133l-2.886,0.603l-0.463-1.757L260.328,42.556z M192.593,19.901c-11.634,0.164-24.589-13.385-24.589-13.385l32.223,11.32
		C200.227,17.836,195.377,19.856,192.593,19.901z M132.396,18.065l-4.259-10.67c16.543-3.606,33.11-0.072,33.11-0.072
		c8.893,4.411,21.706,13.021,21.706,13.021L132.396,18.065z M102.536,17.836l4.856-2.57c8.011-4.563,19.647-7.505,19.647-7.505
		l3.676,10.305L102.536,17.836z M55.4,33.084L53.823,22.31c-0.046-0.367,0.152-0.667,0.443-0.677l1.143-0.012
		c0.301-0.004,0.579,0.285,0.629,0.647l1.572,10.782c0.05,0.367-0.146,0.666-0.439,0.67l-1.149,0.017
		C55.735,33.739,55.448,33.447,55.4,33.084z M52.327,33.138l-1.566-10.784c-0.063-0.365,0.137-0.667,0.435-0.672l1.141-0.014
		c0.286,0,0.569,0.288,0.634,0.65l1.567,10.779c0.055,0.368-0.138,0.669-0.447,0.669l-1.127,0.021
		C52.669,33.786,52.389,33.497,52.327,33.138z M49.262,33.184l-1.57-10.782c-0.052-0.368,0.14-0.667,0.436-0.676l1.146-0.01
		c0.292-0.002,0.578,0.283,0.629,0.647l1.569,10.78c0.047,0.367-0.146,0.666-0.44,0.673l-1.136,0.014
		C49.589,33.833,49.31,33.543,49.262,33.184z M45.058,21.774l1.136-0.015c0.286,0,0.584,0.29,0.629,0.652l1.568,10.779
		c0.061,0.365-0.137,0.667-0.442,0.671l-1.134,0.016c-0.287,0.003-0.568-0.28-0.629-0.647l-1.567-10.783
		C44.57,22.081,44.763,21.781,45.058,21.774z M262.894,50.722c-0.448,0.002-0.908-0.583-1.012-1.312l-0.826-5.665
		c-0.105-0.734,0.165-1.331,0.621-1.333c0.455-0.011,0.907,0.572,1.016,1.304l0.833,5.671
		C263.628,50.122,263.353,50.718,262.894,50.722z M68.269,42.69c0.131,9.203,7.733,16.57,16.929,16.429
		c4.455-0.069,8.618-1.866,11.724-5.064c3.098-3.198,4.77-7.418,4.706-11.87c-0.082-4.457-1.867-8.62-5.066-11.717
		c-3.204-3.109-7.415-4.78-11.875-4.71c-4.452,0.068-8.613,1.873-11.715,5.068C69.86,34.019,68.199,38.238,68.269,42.69z
		 M72.779,42.621c-0.103-6.72,5.258-12.245,11.969-12.349C91.46,30.168,97.009,35.53,97.11,42.25
		c0.104,6.724-5.262,12.25-11.995,12.356C78.404,54.709,72.883,49.345,72.779,42.621z M74.199,42.488
		c0.104,6.047,5.08,10.875,11.135,10.787c6.03-0.097,10.869-5.073,10.779-11.12c-0.092-6.049-5.067-10.871-11.115-10.779
		C78.944,31.468,74.12,36.448,74.199,42.488z M77.076,43.938L76.768,40.8l5.3-1.054l-0.509-5.314l2.476-0.695l2.645,4.753
		l5.416-2.15l1.357,1.717l-4.111,4.717l4.085,3.89l-1.71,2.264l-5.313-2.902l-2.852,4.929l-2.668-1.035l0.593-5.143L77.076,43.938z
		 M82.015,42.369c0.028,1.744,1.448,3.125,3.195,3.104c1.732-0.028,3.121-1.455,3.098-3.195c-0.024-1.738-1.465-3.124-3.192-3.096
		C83.373,39.206,81.984,40.633,82.015,42.369z M83.096,42.364c-0.01-1.143,0.899-2.088,2.02-2.104
		c1.158-0.02,2.091,0.894,2.109,2.031c0.008,1.143-0.894,2.081-2.033,2.098C84.059,44.402,83.116,43.491,83.096,42.364z"/>
	<g>
		<path fill="#C8961E" d="M12.719,87.268c-3.082,2.496-6.153,5.002-9.236,7.512c9.612,0.508,18.914,0.643,27.972,0.434
			c2.622-2.498,5.256-5.014,7.886-7.521C30.713,87.85,21.842,87.717,12.719,87.268z"/>
		<path fill="#C8961E" d="M47.209,80.174c-2.613,2.508-5.248,5.015-7.869,7.518c8.389-0.41,16.533-1.033,24.451-1.86
			c2.251-2.378,4.509-4.747,6.788-7.114C62.992,79.373,55.209,79.864,47.209,80.174z"/>
		<path fill="#C8961E" d="M31.186,72.244c-3.08,2.498-6.157,5.004-9.237,7.506c8.644,0.393,17.063,0.527,25.261,0.424
			c2.642-2.504,5.271-5.016,7.888-7.514C47.315,72.705,39.354,72.572,31.186,72.244z"/>
		<path fill="#C8961E" d="M98.036,69.631c-6.724,0.729-13.615,1.391-20.673,1.971c-2.263,2.373-4.528,4.742-6.784,7.115
			c7.359-0.781,14.536-1.671,21.518-2.635C94.094,73.93,96.05,71.774,98.036,69.631z"/>
		<path fill="#C8961E" d="M182.375,87.623c3.573,1.498,7.568,2.953,12.11,4.34c2.834-2.582,5.662-5.16,8.495-7.738
			c-4.884-1.105-9.285-2.287-13.285-3.484C187.26,83.035,184.804,85.33,182.375,87.623z"/>
		<path fill="#C8961E" d="M101.45,84.408c6.621-1.482,13.036-2.881,19.252-4.15c1.586-1.697,3.179-3.389,4.777-5.076
			c-6.069,1.074-12.316,2.256-18.769,3.511C104.954,80.599,103.204,82.506,101.45,84.408z"/>
		<path fill="#C8961E" d="M164.473,79.455c3.052,1.106,5.923,2.359,8.76,3.717c2.023-1.996,4.042-3.988,6.06-5.982
			c-3.22-1.08-6.476-2.072-9.837-2.944C167.796,75.982,166.135,77.723,164.473,79.455z"/>
		<path fill="#C8961E" d="M57,92.943c7.995-1.189,15.767-2.52,23.282-3.959c1.97-2.143,3.945-4.301,5.925-6.449
			c-7.265,1.202-14.73,2.305-22.416,3.296C61.521,88.195,59.256,90.566,57,92.943z"/>
		<path fill="#C8961E" d="M238.123,97c3.15-2.924,6.319-5.839,9.471-8.756c-9.679-0.232-18.354-0.668-26.087-1.299
			c-3.1,2.808-6.222,5.614-9.307,8.432C219.788,96.156,228.408,96.707,238.123,97z"/>
		<path fill="#C8961E" d="M185.349,71.203c-2.016,2.001-4.037,3.992-6.057,5.986c3.303,1.148,6.722,2.354,10.403,3.551
			c2.445-2.293,4.887-4.585,7.322-6.875C192.925,72.955,189.062,72.067,185.349,71.203z"/>
		<path fill="#C8961E" d="M220.01,68.724c-5.642-0.556-10.827-1.143-15.662-1.747c-2.437,2.298-4.87,4.587-7.33,6.888
			c4.411,0.904,9.221,1.776,14.485,2.605C214.341,73.896,217.174,71.312,220.01,68.724z"/>
		<path fill="#C8961E" d="M162.215,67.843c-1.468,1.579-2.936,3.163-4.4,4.737c4.219,0.369,8.074,0.938,11.641,1.665
			c1.659-1.739,3.318-3.483,4.971-5.214C170.602,68.495,166.552,68.098,162.215,67.843z"/>
		<path fill="#C8961E" d="M191.407,65.223c-4.029-0.529-7.986-1.004-11.993-1.415c-1.668,1.745-3.327,3.483-4.988,5.223
			c3.674,0.634,7.31,1.375,10.923,2.172C187.368,69.215,189.388,67.218,191.407,65.223z"/>
		<path fill="#C8961E" d="M266.514,70.744c-9.587-0.11-18.364-0.328-26.371-0.643c-3.105,2.809-6.218,5.613-9.313,8.432
			c7.865,0.459,16.586,0.789,26.225,0.964C260.211,76.578,263.367,73.656,266.514,70.744z"/>
		<path fill="#C8961E" d="M211.503,76.471c-2.841,2.583-5.682,5.164-8.522,7.754c5.487,1.021,11.633,1.936,18.526,2.721
			c3.112-2.807,6.222-5.612,9.322-8.412C223.717,77.936,217.301,77.248,211.503,76.471z"/>
		<path fill="#C8961E" d="M130.257,70.105c-1.598,1.693-3.194,3.383-4.777,5.076c5.882-0.949,11.589-1.73,17.129-2.315
			c1.494-1.563,2.983-3.124,4.46-4.689C141.632,68.676,136.018,69.326,130.257,70.105z"/>
		<path fill="#C8961E" d="M92.097,76.082c-1.951,2.148-3.922,4.301-5.89,6.453c7.035-1.264,13.869-2.557,20.504-3.843
			c1.761-1.903,3.517-3.81,5.264-5.714C105.534,74.023,98.919,75.062,92.097,76.082z"/>
		<path fill="#C8961E" d="M135.038,65.038c-5.788,0.689-11.731,1.438-17.81,2.221c-1.749,1.911-3.504,3.815-5.254,5.719
			c6.264-1.021,12.347-1.984,18.282-2.873C131.846,68.414,133.442,66.728,135.038,65.038z"/>
		<path fill="#C8961E" d="M142.608,72.866c-1.489,1.57-2.97,3.124-4.457,4.691c5.429-0.388,10.656-0.466,15.289-0.241
			c1.452-1.577,2.917-3.158,4.374-4.736C153.143,72.432,147.985,72.521,142.608,72.866z"/>
		<path fill="#C8961E" d="M162.215,67.843c1.471-1.577,2.931-3.158,4.399-4.732c-4.765-0.016-9.839,0.106-15.066,0.379
			c-1.489,1.558-2.978,3.127-4.479,4.688C152.386,67.868,157.506,67.765,162.215,67.843z"/>
	</g>
</g>
</svg>
